<svg fill="none" height="1203" viewBox="0 0 2872 1203" width="2872" xmlns="http://www.w3.org/2000/svg" xmlns:xlink="http://www.w3.org/1999/xlink"><linearGradient id="a" gradientUnits="userSpaceOnUse" x1="224.543" x2="1111.63" y1="1002.42" y2="1002.42"><stop offset=".16" stop-color="#008df7"/><stop offset="1" stop-color="#19f"/></linearGradient><linearGradient id="b"><stop offset="0"/><stop offset="1" stop-color="#fff" stop-opacity="0"/></linearGradient><linearGradient id="c" gradientUnits="userSpaceOnUse" x1="171.5" x2="1289.33" xlink:href="#b" y1="777.858" y2="1409.48"/><linearGradient id="d" gradientUnits="userSpaceOnUse" x1="1519.76" x2="1772.5" y1="897.402" y2="316.64"><stop offset="0" stop-color="#008df7"/><stop offset="1" stop-color="#19f"/></linearGradient><linearGradient id="e" gradientUnits="userSpaceOnUse" x1="1337.65" x2="1728.19" xlink:href="#b" y1="1249.06" y2="448.317"/><linearGradient id="f" gradientUnits="userSpaceOnUse" x1="1090.62" x2="1453.42" y1="327.786" y2="1132.22"><stop offset="0" stop-color="#0bf"/><stop offset="1" stop-color="#19f"/></linearGradient><linearGradient id="g" gradientUnits="userSpaceOnUse" x1="341.111" x2="511.197" y1="579.792" y2="228.475"><stop offset="0" stop-color="#19f"/><stop offset="1" stop-color="#008df7"/></linearGradient><linearGradient id="h" gradientUnits="userSpaceOnUse" x1="476.347" x2="878.563" y1="1229.31" y2="207.525"><stop offset="0" stop-color="#19f"/><stop offset=".5" stop-color="#0bf"/><stop offset="1" stop-color="#0bf"/></linearGradient><linearGradient id="i" gradientUnits="userSpaceOnUse" x1="537.183" x2="362.321" xlink:href="#b" y1="-332.613" y2="716.769"/><linearGradient id="j" gradientUnits="userSpaceOnUse" x1="2414" x2="2023" y1="1033.36" y2="68.3576"><stop offset="0" stop-opacity=".11"/><stop offset="1" stop-color="#fff" stop-opacity="0"/></linearGradient><linearGradient id="k" gradientUnits="userSpaceOnUse" x1="2376" x2="2701" y1="1059.5" y2="391.5"><stop offset="0" stop-color="#2da2ff"/><stop offset="1" stop-color="#19bfff"/></linearGradient><linearGradient id="l" gradientUnits="userSpaceOnUse" x1="2607.5" x2="2583" y1="866" y2="770"><stop offset="0" stop-opacity=".47"/><stop offset="1" stop-opacity="0"/></linearGradient><linearGradient id="m" gradientUnits="userSpaceOnUse" x1="2367.91" x2="2096" y1="422.391" y2="1077.5"><stop offset="0" stop-color="#00b2ff"/><stop offset=".417007" stop-color="#2ad2ff"/><stop offset="1" stop-color="#32bbff"/></linearGradient><linearGradient id="n" gradientUnits="userSpaceOnUse" x1="2390.95" x2="2390.95" y1="353" y2="1202.89"><stop offset="0" stop-color="#008df7"/><stop offset="1" stop-color="#008df7" stop-opacity="0"/></linearGradient><linearGradient id="o" gradientUnits="userSpaceOnUse" x1="2320" x2="2469.5" y1="453.5" y2="618.5"><stop offset="0"/><stop offset="1" stop-opacity="0"/></linearGradient><path d="m1111.63 1083.27c.06 25.52-8.07 50.39-23.18 70.96s-36.41 35.76-60.78 43.34c-24.37 7.59-50.533 7.17-74.646-1.2-24.114-8.37-44.914-24.24-59.353-45.28l-4.163-6.72c-1.835-3-3.514-6.09-5.036-9.26l2.417 5.23c-36.432-54.37-85.704-98.92-143.455-129.71-57.752-30.79-122.204-46.871-187.651-46.819-134.766 0-259.124 74.469-331.24 176.999 2.753-7.79 10.407-22.96 13.429-30.55l15.377-33.57.47-.94c81.048-161.158 246.433-273.362 436.461-273.362 15.109 0 30.083.738 44.788 2.081 70.479 6.71 138.648 28.7 199.762 64.441s113.7 84.372 154.11 142.51c0 0 .33.54.53.74.29.4.54.83.74 1.27.89 1.19 1.72 2.42 2.49 3.7.87 1.41 1.74 4.83 2.62 6.24.87 1.41 2.28 3.9 3.29 5.91l4.43 9.8c5.66 14.05 8.58 29.05 8.59 44.19z" fill="url(#a)"/><path d="m1111.63 1083.2c.07 25.53-8.04 50.41-23.15 70.99-15.1 20.58-36.4 35.78-60.78 43.37-24.37 7.6-50.54 7.18-74.66-1.18-24.121-8.37-44.927-24.24-59.369-45.29l-4.163-6.72c-1.835-3.04-3.514-6.13-5.036-9.26l2.417 5.23c-36.424-54.38-85.693-98.94-143.445-129.75-57.752-30.799-122.207-46.891-187.661-46.846-134.766 0-259.124 74.466-331.24 177.006 2.753-7.79 10.407-22.97 13.429-30.56l15.377-33.57.47-.94c40.434-81.253 102.667-149.661 179.744-197.579s165.96-73.458 256.717-73.766c15.109 0 30.083.739 44.788 2.082 70.479 6.709 138.649 28.7 199.763 64.44 61.113 35.741 113.699 84.373 154.109 142.513 0 0 .33.53.53.74.29.4.54.82.74 1.27.89 1.19 1.72 2.42 2.49 3.69l2.62 4.23c1.14 1.88 2.28 3.9 3.29 5.91l4.43 9.81c5.66 14.04 8.58 29.04 8.59 44.18z" fill="url(#c)" opacity=".25"/><path d="m1872.15 369.888c.03 15.82-3.12 31.485-9.27 46.063l-2.35 5.305-302.7 671.214-19.67 43.58c5.38-13.74 8.13-28.36 8.12-43.11.03-16.01-3.17-31.86-9.4-46.6l-2.55-5.51-107.44-236.965 217.76-479.638v-.402l2.82-6.044c11.82-23.957 31.4-43.211 55.55-54.632 24.15-11.422 51.45-14.339 77.47-8.278s49.22 20.744 65.84 41.662 25.67 46.842 25.69 73.556z" fill="url(#d)"/><path d="m1871.95 369.351c.02 15.819-3.13 31.483-9.27 46.063l-2.35 5.238-298.27 661.678-19.61 43.58c5.36-13.74 8.09-28.37 8.06-43.11.05-16.01-3.13-31.85-9.33-46.6l-2.55-5.51-107.44-236.964 213.4-470.036v-.335l2.82-6.111c11.84-23.925 31.42-43.144 55.56-54.538 24.15-11.394 51.43-14.293 77.43-8.227s49.18 20.741 65.79 41.642c16.6 20.902 25.66 46.803 25.69 73.498z" fill="url(#e)" opacity=".25"/><path d="m1550.71 1083.33c.04 14.77-2.69 29.42-8.05 43.18l-5.44 12.02c-10.06 19.31-25.2 35.5-43.79 46.84-18.59 11.33-39.92 17.37-61.69 17.47-21.77.09-43.15-5.76-61.84-16.92-18.69-11.17-33.97-27.23-44.2-46.45l-6.71-14.24-19.14-42.3-296.59-658.048-5.845-12.892c-10.273-28.006-9.619-58.853 1.83-86.398 11.445-27.546 32.855-49.768 59.955-62.241 27.09-12.473 57.89-14.282 86.26-5.066 28.38 9.216 52.23 28.78 66.83 54.796l7.18 15.78 211.12 464.932 107.43 236.967 2.49 5.57c6.56 14.81 10.03 30.81 10.2 47z" fill="url(#f)"/><path d="m558.469 405.745-89.777 197.549c-1.713 3.736-4.328 6.987-7.61 9.46s-7.128 4.091-11.191 4.708c-86.656 14.466-169.348 46.825-242.807 95.015-4.483 2.929-9.796 4.322-15.14 3.97s-10.428-2.431-14.488-5.923-6.876-8.208-8.024-13.439c-1.147-5.231-.565-10.693 1.661-15.564l256.303-564.512 19.339-42.6388c-10.849 28.7328-10.248 60.5348 1.679 88.8368l2.417 5.305z" fill="url(#g)"/><path d="m1098.14 1028c-1.61-2.41-5.85-8.72-7.52-11.07-.54-.94-.54-2.22-1.15-3.09-.6-.88-.33-.54-.53-.74-40.41-58.139-92.996-106.771-154.109-142.511-61.114-35.741-129.284-57.731-199.763-64.441-14.705-1.343-29.679-2.082-44.788-2.082-90.672.336-179.463 25.894-256.438 73.815s-139.098 116.315-179.419 197.529l-.47.94c-5.506 11.08-10.676 22.36-15.377 33.57l-13.429 29.95c-.94 1.35-1.813 2.76-2.753 4.23-1.41 2.08-2.82 4.23-4.096 6.38-14.379 21.11-35.139 37.05-59.238 45.5-24.099 8.44-50.269 8.95-74.6771 1.44-24.4077-7.51-45.7693-22.63-60.9546-43.16-15.18518-20.53-23.3956655-45.39-23.4283-70.93.080101-13.13 2.34949-26.15 6.71479-38.54l9.46781-20.88c.4042-.87.8757-1.7 1.4101-2.49 1.0073-1.67 2.0145-3.29 3.156-4.83.2735-.54.5877-1.05.9401-1.54 71.9841-110.644 176.5172-196.229 299.1872-244.961 122.671-48.731 257.438-58.209 385.721-27.127l-57.948-127.581-92.664-204.13-107.437-237.233-2.417-5.305c-11.927-28.302-12.528-60.104-1.679-88.8366l6.715-14.3025c10.498-19.3557 26.136-35.4373 45.191-46.4723 19.054-11.03498 40.786-16.59499 62.799-16.06724 22.013.52776 43.453 7.12284 61.957 19.05824 18.504 11.9355 33.353 28.748 42.912 48.5845l2.35 5.3047 21.151 46.5332 295.048 649.925z" fill="url(#h)"/><path d="m555.783 411.654-87.292 191.909c-1.695 3.71-4.279 6.944-7.524 9.416-3.245 2.471-7.049 4.104-11.076 4.752-86.656 14.465-169.348 46.824-242.807 95.014-4.483 2.929-9.796 4.323-15.14 3.97-5.344-.352-10.428-2.43-14.488-5.922s-6.876-8.209-8.024-13.439c-1.147-5.231-.565-10.693 1.661-15.564l253.617-558.872 19.339-42.6388c-10.849 28.7328-10.248 60.5348 1.679 88.8368l2.417 5.305z" fill="url(#i)" opacity=".25"/><path d="m2870.84 715.507c-.4-7.454-1.08-14.84-1.95-22.226-1.57-12.311-3.67-24.42-6.31-36.327-.61-3.089-1.34-6.111-2.15-9.132-1.14-4.634-2.42-9.2-3.69-13.43l-2.35-7.789c-1.01-3.223-2.15-6.715-3.23-9.669-.6-1.813-1.27-3.626-1.94-5.372s-1.35-3.76-2.08-5.708c-.33-.994-.73-1.96-1.21-2.887-.94-2.641-1.95-5.193-3.02-7.655-1.28-3.089-2.62-6.11-3.97-9.132l-2.41-5.305-2.56-5.17c-2.14-4.566-4.43-8.931-6.71-13.43-1.21-2.417-2.62-4.834-3.96-7.252l-1.28-2.216c-1.14-1.947-2.28-3.894-3.49-5.774l-2.82-4.768-3.02-4.7c-.94-1.477-1.88-2.888-2.96-4.432-1.81-2.753-3.69-5.573-5.7-8.326-2.02-2.753-2.56-3.693-3.9-5.506l-2.89-3.761c-1.74-2.417-3.55-4.767-5.43-7.05-1.75-2.283-3.56-4.432-5.38-6.715-1.81-2.283-2.21-2.686-3.35-3.962-1.88-2.283-3.9-4.499-5.98-6.714-2.08-2.216-4.03-4.499-6.18-6.715s-5.91-6.178-9-9.2l-6.71-6.312c-3.09-2.954-6.25-5.707-9.4-8.527-1.95-1.746-3.9-3.358-5.84-4.969-11.99-10.068-24.62-19.354-37.81-27.799-45.72-29.243-97.5-47.693-151.41-53.952s-108.54-.163-159.75 17.826c-79.87 28.355-147.32 83.718-190.7 156.522-32.26 51.87-50.3 111.317-52.31 172.368v6.111 6.715 6.714c1.73 62.155 27.18 121.291 71.13 165.27 43.96 43.979 103.08 69.465 165.23 71.225h13.43c61.12-1.735 119.35-26.401 163.11-69.098 43.77-42.696 69.87-100.296 73.12-161.353-1.99 63.49-19.95 125.454-52.24 180.158-43.42 72.756-110.87 128.087-190.7 156.457-51.21 17.99-105.84 24.08-159.75 17.82s-105.69-24.71-151.42-53.95c-6.71-4.3-13.43-8.86-20.14-13.43l-7.19-5.44c-8.19-6.31-16.07-13.02-23.63-20.14-1.61-1.41-3.16-2.82-4.63-4.3-1.48-1.48-3.03-2.89-4.5-4.364-.46-.415-.89-.863-1.28-1.342-2.15-2.082-4.23-4.231-6.38-6.38l-1.14-1.275c-2.15-2.216-4.23-4.432-6.18-6.715s-4.03-4.365-5.91-6.715-2.88-3.424-4.29-5.17-2.56-5.238-3.76-6.715c-1.21-1.477-1.28.671-1.88 0-.61-.672-2.89-3.693-4.37-5.573s-2.15-2.821-3.16-4.298c-1-1.477-2.01-2.753-3.02-4.163l-3.42-4.835-5.78-8.729-3.02-4.7c-1.01-1.545-1.88-3.156-2.82-4.701-.94-1.544-1.88-3.021-2.75-4.566l-3.02-5.17-1.88-3.626c-1.21-2.104-2.35-4.186-3.43-6.245-1.47-2.82-2.95-5.775-4.36-8.662s-2.15-4.499-3.23-6.715c-2.01-4.431-4.02-8.863-5.84-13.429-.67-1.545-1.34-3.156-1.94-4.701-.61-1.544-2.02-4.901-2.89-7.319-.87-2.417-2.35-8.595-3.43-11.751-.4-1.074-.8 0-1.14-1.007-.87-2.619-1.68-5.304-2.48-7.923-1.48-4.633-2.82-9.267-4.03-13.967-.74-2.35-1.34-4.835-1.95-7.252-.87-3.559-1.74-7.118-2.48-10.744s-1.48-7.252-2.15-10.945c-2.08-10.945-3.56-24.307-4.57-35.588-.33-3.29-.6-6.715-.8-10.005-.04-.447-.04-.896 0-1.343 0-1.209 0-2.417 0-3.626s0-1.88 0-2.887c0-2.149 0-4.365 0-6.715 0-3.358 0-6.715 0-10.14 0-3.424 0-6.714 0-10.005 0-4.364.33-8.662.6-13.026 5.71-119.258 55.65-232.11 140.07-316.535 84.43-84.424 197.28-134.363 316.54-140.071 4.29 0 8.59-.537 12.89-.604h10.14 10.14c4.3 0 8.59.335 12.89.604 246.57 11.617 444.45 214.538 456.61 460.903-.14.269-.07.672-.07 1.142z" fill="url(#j)"/><path d="m2870.84 712.649c-.4-7.453-1.08-14.84-1.95-22.226-1.57-12.31-3.67-24.419-6.31-36.327-.61-3.089-1.34-6.11-2.15-9.132-1.14-4.633-2.42-9.199-3.69-13.43l-2.35-7.789c-1.01-3.223-2.15-6.715-3.23-9.669-.6-1.813-1.27-3.626-1.94-5.372s-1.35-3.76-2.08-5.707c-.33-.995-.73-1.961-1.21-2.888-.94-2.641-1.95-5.193-3.02-7.655-1.28-3.088-2.62-6.11-3.97-9.132l-2.41-5.304-2.56-5.171c-2.14-4.566-4.43-8.93-6.71-13.429-1.21-2.418-2.62-4.835-3.96-7.252l-1.28-2.216c-1.14-1.948-2.28-3.895-3.49-5.775l-2.82-4.767-3.02-4.701c-.94-1.477-1.88-2.887-2.96-4.432-1.81-2.753-3.69-5.573-5.7-8.326-2.02-2.753-2.56-3.693-3.9-5.506l-2.89-3.76c-1.74-2.418-3.55-4.768-5.43-7.051-1.75-2.283-3.56-4.432-5.38-6.715-1.81-2.283-2.21-2.686-3.35-3.961-1.88-2.283-3.9-4.499-5.98-6.715s-4.03-4.499-6.18-6.715-5.91-6.178-9-9.199l-6.71-6.312c-3.09-2.955-6.25-5.708-9.4-8.528-1.95-1.746-3.9-3.357-5.84-4.969-11.99-10.068-24.62-19.354-37.81-27.799-45.72-29.242-97.5-47.692-151.41-53.952-53.91-6.259-108.54-.163-159.75 17.826-79.87 28.356-147.32 83.718-190.7 156.522-32.26 51.87-50.3 111.318-52.31 172.369v6.11 6.715 6.715c1.73 62.154 27.18 121.29 71.13 165.269 43.96 43.98 103.08 69.465 165.23 71.226h13.43c61.12-1.735 119.35-26.402 163.11-69.098 43.77-42.697 69.87-100.297 73.12-161.354-1.99 63.491-19.95 125.455-52.24 180.158-43.42 72.756-110.87 128.085-190.7 156.455-51.21 17.99-105.84 24.08-159.75 17.83-53.91-6.26-105.69-24.71-151.42-53.96-6.71-4.29-13.43-8.86-20.14-13.43l-7.19-5.43c-8.19-6.32-16.07-13.03-23.63-20.15-1.61-1.41-3.16-2.82-4.63-4.3-1.48-1.474-3.03-2.884-4.5-4.361-.46-.415-.89-.864-1.28-1.343-2.15-2.082-4.23-4.23-6.38-6.379l-1.14-1.276c-2.15-2.216-4.23-4.432-6.18-6.715s-4.03-4.364-5.91-6.715c-1.88-2.35-2.88-3.424-4.29-5.17s-2.56-5.238-3.76-6.715c-1.21-1.477-1.28.672-1.88 0-.61-.671-2.89-3.693-4.37-5.573s-2.15-2.82-3.16-4.298c-1-1.477-2.01-2.753-3.02-4.163l-3.42-4.834-5.78-8.73-3.02-4.7c-1.01-1.544-1.88-3.156-2.82-4.7-.94-1.545-1.88-3.022-2.75-4.566l-3.02-5.171-1.88-3.626c-1.21-2.104-2.35-4.185-3.43-6.244-1.47-2.821-2.95-5.775-4.36-8.663-1.41-2.887-2.15-4.498-3.23-6.714-2.01-4.432-4.02-8.864-5.84-13.43-.67-1.544-1.34-3.156-1.94-4.7-.61-1.545-2.02-4.902-2.89-7.319-.87-2.418-2.35-8.595-3.43-11.751-.4-1.075-.8 0-1.14-1.007-.87-2.619-1.68-5.305-2.48-7.924-1.48-4.633-2.82-9.266-4.03-13.967-.74-2.35-1.34-4.834-1.95-7.252-.87-3.558-1.74-7.117-2.48-10.743s-1.48-7.252-2.15-10.945c-2.08-10.945-3.56-24.308-4.57-35.589-.33-3.29-.6-6.715-.8-10.005-.04-.447-.04-.896 0-1.343 0-1.208 0-2.417 0-3.626 0-1.208 0-1.88 0-2.887 0-2.149 0-4.365 0-6.715 0-3.357 0-6.715 0-10.139 0-3.425 0-6.715 0-10.005 0-4.365.33-8.662.6-13.027 5.71-119.258 55.65-232.11 140.07-316.534 84.43-84.425 197.28-134.364 316.54-140.072 4.29 0 8.59-.537 12.89-.604h10.14 10.14c4.3 0 8.59.336 12.89.604 246.57 11.617 444.45 214.538 456.61 460.904-.14.268-.07.671-.07 1.141z" fill="url(#k)"/><path d="m2870.84 712.649c-.4-7.453-1.08-14.84-1.95-22.226-1.57-12.31-3.67-24.419-6.31-36.327-.61-3.089-1.34-6.11-2.15-9.132-1.14-4.633-2.42-9.199-3.69-13.43l-2.35-7.789c-1.01-3.223-2.15-6.715-3.23-9.669-.6-1.813-1.27-3.626-1.94-5.372s-1.35-3.76-2.08-5.707c-.33-.995-.73-1.961-1.21-2.888-.94-2.641-1.95-5.193-3.02-7.655-1.28-3.088-2.62-6.11-3.97-9.132l-2.41-5.304-2.56-5.171c-2.14-4.566-4.43-8.93-6.71-13.429-1.21-2.418-2.62-4.835-3.96-7.252l-1.28-2.216c-1.14-1.948-2.28-3.895-3.49-5.775l-2.82-4.767-3.02-4.701c-.94-1.477-1.88-2.887-2.96-4.432-1.81-2.753-3.69-5.573-5.7-8.326-2.02-2.753-2.56-3.693-3.9-5.506l-2.89-3.76c-1.74-2.418-3.55-4.768-5.43-7.051-1.75-2.283-3.56-4.432-5.38-6.715-1.81-2.283-2.21-2.686-3.35-3.961-1.88-2.283-3.9-4.499-5.98-6.715s-4.03-4.499-6.18-6.715-5.91-6.178-9-9.199l-6.71-6.312c-3.09-2.955-6.25-5.708-9.4-8.528-1.95-1.746-3.9-3.357-5.84-4.969-11.99-10.068-24.62-19.354-37.81-27.799-45.72-29.242-97.5-47.692-151.41-53.952-53.91-6.259-108.54-.163-159.75 17.826-79.87 28.356-147.32 83.718-190.7 156.522-32.26 51.87-50.3 111.318-52.31 172.369v6.11 6.715 6.715c1.73 62.154 27.18 121.29 71.13 165.269 43.96 43.98 103.08 69.465 165.23 71.226h13.43c61.12-1.735 119.35-26.402 163.11-69.098 43.77-42.697 69.87-100.297 73.12-161.354-1.99 63.491-19.95 125.455-52.24 180.158-43.42 72.756-110.87 128.085-190.7 156.455-51.21 17.99-105.84 24.08-159.75 17.83-53.91-6.26-105.69-24.71-151.42-53.96-6.71-4.29-13.43-8.86-20.14-13.43l-7.19-5.43c-8.19-6.32-16.07-13.03-23.63-20.15-1.61-1.41-3.16-2.82-4.63-4.3-1.48-1.474-3.03-2.884-4.5-4.361-.46-.415-.89-.864-1.28-1.343-2.15-2.082-4.23-4.23-6.38-6.379l-1.14-1.276c-2.15-2.216-4.23-4.432-6.18-6.715s-4.03-4.364-5.91-6.715c-1.88-2.35-2.88-3.424-4.29-5.17s-2.56-5.238-3.76-6.715c-1.21-1.477-1.28.672-1.88 0-.61-.671-2.89-3.693-4.37-5.573s-2.15-2.82-3.16-4.298c-1-1.477-2.01-2.753-3.02-4.163l-3.42-4.834-5.78-8.73-3.02-4.7c-1.01-1.544-1.88-3.156-2.82-4.7-.94-1.545-1.88-3.022-2.75-4.566l-3.02-5.171-1.88-3.626c-1.21-2.104-2.35-4.185-3.43-6.244-1.47-2.821-2.95-5.775-4.36-8.663-1.41-2.887-2.15-4.498-3.23-6.714-2.01-4.432-4.02-8.864-5.84-13.43-.67-1.544-1.34-3.156-1.94-4.7-.61-1.545-2.02-4.902-2.89-7.319-.87-2.418-2.35-8.595-3.43-11.751-.4-1.075-.8 0-1.14-1.007-.87-2.619-1.68-5.305-2.48-7.924-1.48-4.633-2.82-9.266-4.03-13.967-.74-2.35-1.34-4.834-1.95-7.252-.87-3.558-1.74-7.117-2.48-10.743s-1.48-7.252-2.15-10.945c-2.08-10.945-3.56-24.308-4.57-35.589-.33-3.29-.6-6.715-.8-10.005-.04-.447-.04-.896 0-1.343 0-1.208 0-2.417 0-3.626 0-1.208 0-1.88 0-2.887 0-2.149 0-4.365 0-6.715 0-3.357 0-6.715 0-10.139 0-3.425 0-6.715 0-10.005 0-4.365.33-8.662.6-13.027 5.71-119.258 55.65-232.11 140.07-316.534 84.43-84.425 197.28-134.364 316.54-140.072 4.29 0 8.59-.537 12.89-.604h10.14 10.14c4.3 0 8.59.336 12.89.604 246.57 11.617 444.45 214.538 456.61 460.904-.14.268-.07.671-.07 1.141z" fill="url(#l)" fill-opacity=".2"/><path d="m1911.07 740.242c.4 7.453 1.07 14.84 1.94 22.226 1.57 12.31 3.68 24.419 6.32 36.327.6 3.089 1.34 6.11 2.15 9.132 1.14 4.633 2.41 9.199 3.69 13.43l2.35 7.789c1.01 3.223 2.15 6.715 3.22 9.669.61 1.813 1.28 3.626 1.95 5.372s1.34 3.76 2.08 5.708c.32.994.73 1.96 1.21 2.887.94 2.641 1.95 5.193 3.02 7.655 1.28 3.089 2.62 6.11 3.96 9.132l2.42 5.305 2.55 5.17c2.15 4.566 4.43 8.931 6.72 13.43 1.21 2.417 2.62 4.834 3.96 7.252l1.27 2.215c1.15 1.948 2.29 3.895 3.5 5.775l2.82 4.768 3.02 4.7c.94 1.477 1.88 2.887 2.95 4.432 1.81 2.753 3.7 5.573 5.71 8.326s2.55 3.693 3.89 5.506l2.89 3.76c1.75 2.418 3.56 4.768 5.44 7.051 1.75 2.283 3.56 4.432 5.37 6.715 1.82 2.283 2.22 2.686 3.36 3.961 1.88 2.283 3.89 4.499 5.98 6.715 2.08 2.216 4.02 4.499 6.17 6.715s5.91 6.178 9 9.199l6.72 6.312c3.08 2.955 6.24 5.708 9.4 8.528 1.94 1.746 3.89 3.357 5.84 4.966 11.99 10.07 24.62 19.36 37.8 27.8 45.73 29.24 97.51 47.69 151.42 53.95s108.54.17 159.75-17.82c79.86-28.36 147.31-83.72 190.7-156.524 32.26-51.87 50.3-111.318 52.3-172.369 0-2.081 0-4.029 0-6.11 0-2.082 0-4.499 0-6.715s0-4.499 0-6.715c-1.72-62.154-27.17-121.29-71.13-165.269-43.95-43.98-103.07-69.465-165.23-71.226h-13.43c-61.11 1.735-119.34 26.402-163.11 69.098-43.77 42.697-69.87 100.297-73.11 161.354 1.98-63.49 19.95-125.455 52.24-180.158 43.42-72.756 110.86-128.086 190.7-156.454 51.21-17.989 105.84-24.085 159.75-17.826s105.69 24.709 151.41 53.951c6.72 4.298 13.43 8.864 20.15 13.43l7.18 5.439c8.19 6.312 16.07 13.026 23.64 20.144 1.61 1.41 3.15 2.82 4.63 4.298 1.48 1.477 3.02 2.887 4.5 4.364.46.415.88.864 1.28 1.343 2.14 2.082 4.23 4.23 6.37 6.379l1.15 1.276c2.14 2.216 4.23 4.432 6.17 6.715 1.95 2.283 4.03 4.364 5.91 6.715 1.88 2.35 2.89 3.424 4.3 5.17s2.55 5.238 3.76 6.715 1.28-.672 1.88 0c.6.671 2.89 3.693 4.37 5.573 1.47 1.88 2.14 2.82 3.15 4.298 1.01 1.477 2.02 2.753 3.02 4.163l3.43 4.834 5.77 8.73 3.02 4.7c1.01 1.544 1.88 3.156 2.82 4.7.94 1.545 1.88 3.022 2.76 4.566l3.02 5.171 1.88 3.626c1.21 2.104 2.35 4.185 3.42 6.244 1.48 2.821 2.96 5.775 4.37 8.663 1.41 2.887 2.15 4.498 3.22 6.714 2.02 4.432 4.03 8.864 5.84 13.43.67 1.544 1.35 3.156 1.95 4.7.6 1.545 2.01 4.902 2.89 7.319.87 2.418 2.35 8.595 3.42 11.751.41 1.075.81 0 1.14 1.007.88 2.619 1.68 5.305 2.49 7.924 1.48 4.633 2.82 9.266 4.03 13.967.74 2.35 1.34 4.834 1.94 7.252.88 3.558 1.75 7.117 2.49 10.743s1.48 7.252 2.15 10.945c2.08 10.946 3.56 24.308 4.56 35.589.34 3.29.61 6.715.81 10.005.03.447.03.896 0 1.343v3.626 2.887 6.715 10.139 10.005c0 4.365-.34 8.662-.61 13.027-5.7 119.258-55.64 232.11-140.07 316.539-84.42 84.42-197.27 134.36-316.53 140.07-4.3 0-8.6.53-12.89.6h-10.14-10.14c-4.3 0-8.6-.33-12.89-.6-246.57-11.62-444.46-214.541-456.61-460.906.13-.269.07-.672.07-1.142z" fill="url(#m)"/><path d="m1911.07 740.242c.4 7.453 1.07 14.84 1.94 22.226 1.57 12.31 3.68 24.419 6.32 36.327.6 3.089 1.34 6.11 2.15 9.132 1.14 4.633 2.41 9.199 3.69 13.43l2.35 7.789c1.01 3.223 2.15 6.715 3.22 9.669.61 1.813 1.28 3.626 1.95 5.372s1.34 3.76 2.08 5.708c.32.994.73 1.96 1.21 2.887.94 2.641 1.95 5.193 3.02 7.655 1.28 3.089 2.62 6.11 3.96 9.132l2.42 5.305 2.55 5.17c2.15 4.566 4.43 8.931 6.72 13.43 1.21 2.417 2.62 4.834 3.96 7.252l1.27 2.215c1.15 1.948 2.29 3.895 3.5 5.775l2.82 4.768 3.02 4.7c.94 1.477 1.88 2.887 2.95 4.432 1.81 2.753 3.7 5.573 5.71 8.326s2.55 3.693 3.89 5.506l2.89 3.76c1.75 2.418 3.56 4.768 5.44 7.051 1.75 2.283 3.56 4.432 5.37 6.715 1.82 2.283 2.22 2.686 3.36 3.961 1.88 2.283 3.89 4.499 5.98 6.715 2.08 2.216 4.02 4.499 6.17 6.715s5.91 6.178 9 9.199l6.72 6.312c3.08 2.955 6.24 5.708 9.4 8.528 1.94 1.746 3.89 3.357 5.84 4.966 11.99 10.07 24.62 19.36 37.8 27.8 45.73 29.24 97.51 47.69 151.42 53.95s108.54.17 159.75-17.82c79.86-28.36 147.31-83.72 190.7-156.524 32.26-51.87 50.3-111.318 52.3-172.369 0-2.081 0-4.029 0-6.11 0-2.082 0-4.499 0-6.715s0-4.499 0-6.715c-1.72-62.154-27.17-121.29-71.13-165.269-43.95-43.98-103.07-69.465-165.23-71.226h-13.43c-61.11 1.735-119.34 26.402-163.11 69.098-43.77 42.697-69.87 100.297-73.11 161.354 1.98-63.49 19.95-125.455 52.24-180.158 43.42-72.756 110.86-128.086 190.7-156.454 51.21-17.989 105.84-24.085 159.75-17.826s105.69 24.709 151.41 53.951c6.72 4.298 13.43 8.864 20.15 13.43l7.18 5.439c8.19 6.312 16.07 13.026 23.64 20.144 1.61 1.41 3.15 2.82 4.63 4.298 1.48 1.477 3.02 2.887 4.5 4.364.46.415.88.864 1.28 1.343 2.14 2.082 4.23 4.23 6.37 6.379l1.15 1.276c2.14 2.216 4.23 4.432 6.17 6.715 1.95 2.283 4.03 4.364 5.91 6.715 1.88 2.35 2.89 3.424 4.3 5.17s2.55 5.238 3.76 6.715 1.28-.672 1.88 0c.6.671 2.89 3.693 4.37 5.573 1.47 1.88 2.14 2.82 3.15 4.298 1.01 1.477 2.02 2.753 3.02 4.163l3.43 4.834 5.77 8.73 3.02 4.7c1.01 1.544 1.88 3.156 2.82 4.7.94 1.545 1.88 3.022 2.76 4.566l3.02 5.171 1.88 3.626c1.21 2.104 2.35 4.185 3.42 6.244 1.48 2.821 2.96 5.775 4.37 8.663 1.41 2.887 2.15 4.498 3.22 6.714 2.02 4.432 4.03 8.864 5.84 13.43.67 1.544 1.35 3.156 1.95 4.7.6 1.545 2.01 4.902 2.89 7.319.87 2.418 2.35 8.595 3.42 11.751.41 1.075.81 0 1.14 1.007.88 2.619 1.68 5.305 2.49 7.924 1.48 4.633 2.82 9.266 4.03 13.967.74 2.35 1.34 4.834 1.94 7.252.88 3.558 1.75 7.117 2.49 10.743s1.48 7.252 2.15 10.945c2.08 10.946 3.56 24.308 4.56 35.589.34 3.29.61 6.715.81 10.005.03.447.03.896 0 1.343v3.626 2.887 6.715 10.139 10.005c0 4.365-.34 8.662-.61 13.027-5.7 119.258-55.64 232.11-140.07 316.539-84.42 84.42-197.27 134.36-316.53 140.07-4.3 0-8.6.53-12.89.6h-10.14-10.14c-4.3 0-8.6-.33-12.89-.6-246.57-11.62-444.46-214.541-456.61-460.906.13-.269.07-.672.07-1.142z" fill="url(#n)" fill-opacity=".4"/><path d="m1911.07 740.242c.4 7.453 1.07 14.84 1.94 22.226 1.57 12.31 3.68 24.419 6.32 36.327.6 3.089 1.34 6.11 2.15 9.132 1.14 4.633 2.41 9.199 3.69 13.43l2.35 7.789c1.01 3.223 2.15 6.715 3.22 9.669.61 1.813 1.28 3.626 1.95 5.372s1.34 3.76 2.08 5.708c.32.994.73 1.96 1.21 2.887.94 2.641 1.95 5.193 3.02 7.655 1.28 3.089 2.62 6.11 3.96 9.132l2.42 5.305 2.55 5.17c2.15 4.566 4.43 8.931 6.72 13.43 1.21 2.417 2.62 4.834 3.96 7.252l1.27 2.215c1.15 1.948 2.29 3.895 3.5 5.775l2.82 4.768 3.02 4.7c.94 1.477 1.88 2.887 2.95 4.432 1.81 2.753 3.7 5.573 5.71 8.326s2.55 3.693 3.89 5.506l2.89 3.76c1.75 2.418 3.56 4.768 5.44 7.051 1.75 2.283 3.56 4.432 5.37 6.715 1.82 2.283 2.22 2.686 3.36 3.961 1.88 2.283 3.89 4.499 5.98 6.715 2.08 2.216 4.02 4.499 6.17 6.715s5.91 6.178 9 9.199l6.72 6.312c3.08 2.955 6.24 5.708 9.4 8.528 1.94 1.746 3.89 3.357 5.84 4.966 11.99 10.07 24.62 19.36 37.8 27.8 45.73 29.24 97.51 47.69 151.42 53.95s108.54.17 159.75-17.82c79.86-28.36 147.31-83.72 190.7-156.524 32.26-51.87 50.3-111.318 52.3-172.369 0-2.081 0-4.029 0-6.11 0-2.082 0-4.499 0-6.715s0-4.499 0-6.715c-1.72-62.154-27.17-121.29-71.13-165.269-43.95-43.98-103.07-69.465-165.23-71.226h-13.43c-61.11 1.735-119.34 26.402-163.11 69.098-43.77 42.697-69.87 100.297-73.11 161.354 1.98-63.49 19.95-125.455 52.24-180.158 43.42-72.756 110.86-128.086 190.7-156.454 51.21-17.989 105.84-24.085 159.75-17.826s105.69 24.709 151.41 53.951c6.72 4.298 13.43 8.864 20.15 13.43l7.18 5.439c8.19 6.312 16.07 13.026 23.64 20.144 1.61 1.41 3.15 2.82 4.63 4.298 1.48 1.477 3.02 2.887 4.5 4.364.46.415.88.864 1.28 1.343 2.14 2.082 4.23 4.23 6.37 6.379l1.15 1.276c2.14 2.216 4.23 4.432 6.17 6.715 1.95 2.283 4.03 4.364 5.91 6.715 1.88 2.35 2.89 3.424 4.3 5.17s2.55 5.238 3.76 6.715 1.28-.672 1.88 0c.6.671 2.89 3.693 4.37 5.573 1.47 1.88 2.14 2.82 3.15 4.298 1.01 1.477 2.02 2.753 3.02 4.163l3.43 4.834 5.77 8.73 3.02 4.7c1.01 1.544 1.88 3.156 2.82 4.7.94 1.545 1.88 3.022 2.76 4.566l3.02 5.171 1.88 3.626c1.21 2.104 2.35 4.185 3.42 6.244 1.48 2.821 2.96 5.775 4.37 8.663 1.41 2.887 2.15 4.498 3.22 6.714 2.02 4.432 4.03 8.864 5.84 13.43.67 1.544 1.35 3.156 1.95 4.7.6 1.545 2.01 4.902 2.89 7.319.87 2.418 2.35 8.595 3.42 11.751.41 1.075.81 0 1.14 1.007.88 2.619 1.68 5.305 2.49 7.924 1.48 4.633 2.82 9.266 4.03 13.967.74 2.35 1.34 4.834 1.94 7.252.88 3.558 1.75 7.117 2.49 10.743s1.48 7.252 2.15 10.945c2.08 10.946 3.56 24.308 4.56 35.589.34 3.29.61 6.715.81 10.005.03.447.03.896 0 1.343v3.626 2.887 6.715 10.139 10.005c0 4.365-.34 8.662-.61 13.027-5.7 119.258-55.64 232.11-140.07 316.539-84.42 84.42-197.27 134.36-316.53 140.07-4.3 0-8.6.53-12.89.6h-10.14-10.14c-4.3 0-8.6-.33-12.89-.6-246.57-11.62-444.46-214.541-456.61-460.906.13-.269.07-.672.07-1.142z" fill="url(#o)" fill-opacity=".2"/></svg>