<svg fill="transparent" enable-background="new 0 0 1950 500" viewBox="0 0 1950 500" xmlns="http://www.w3.org/2000/svg"><path d="m1 256c0-84.922394 0-169.844788 0-255 66.694519 0 133.389313 0 200.878937.3145.132629.755775-.480515 1.469059-1.198929 1.598637-19.117172 3.448068-36.400665 10.109153-47.790482 27.313145-1.07814-.464264-1.980667-.804985-2.841156-1.230657-12.509811-6.188347-25.257011-5.335322-37.393127.269432-17.230133 7.957286-33.073174 18.116878-45.991638 32.441017-7.113552 7.887584-12.584553 16.720737-16.505005 26.426204-2.801773 6.936074-4.728413 14.299118-2.016953 22.031632-.918274.568634-1.659038 1.292457-2.531597 1.527954-13.434028 3.62574-21.420124 13.282959-27.508447 24.938797-9.355177 17.910065-11.105873 37.270386-9.937108 56.969574.319582 5.386444 1.965419 10.962662 4.193246 15.916336 6.283136 13.97081 18.694803 21.060761 32.143724 26.419205 17.506954 6.975311 35.92334 8.870254 54.569115 7.928528 7.611602-.384446 13.348518 1.909454 19.210243 6.67517 15.346191 12.476822 32.998855 20.592759 52.790085 22.294877 22.348938 1.922088 43.102676-3.66211 61.947387-16.168702 3.055023-2.027511 4.084122-4.05986 4.056534-7.585235-.153931-19.659058-.510116-39.334412.141434-58.973053.259872-7.832749 2.351471-15.756256 4.61412-23.338562 4.308075-14.436722 13.336487-26.309082 22.109894-38.290283 10.815857-14.77044 18.462891-30.884598 17.98468-49.674271-.454162-17.843292-5.989563-34.393887-15.955444-49.049944-6.088989-8.95459-13.799408-16.811593-20.855423-25.098701-1.177826-1.383314-2.733185-2.445184-4.11409-3.655595 569.88324-.000005 1139.766479-.000005 1710-.000005 0 107.027779 0 214.055939-.356445 321.528687-4.754151-4.016602-9.151978-8.477784-13.843994-13.237458-13.580445 20.774353-27.546265 40.005951-46.505494 56.352234 3.837281-14.557159 5.80127-28.225586 4.973267-42.522247-.902588-15.586456-4.683105-30.419007-8.390137-45.361939-1.807739-7.286468-4.528198-14.413238-5.630615-21.792282-1.619385-10.84111 3.616821-19.646683 9.889404-26.861236-5.176025-5.423691-10.20227-10.690613-15.81726-16.574295-23.047364 31.041671-41.966065 64.488006-61.741578 97.711303 4.07605 4.016175 8.062012 7.575196 11.592041 11.540039 2.764649 3.104889 4.43628 2.377533 6.255372-.718292 4.389038-7.469452 8.766967-14.947388 13.288818-22.336578 5.795898-9.470734 11.728638-18.85788 18.105713-29.088776.545654 2.449219 1.088989 3.852417 1.138061 5.272705.399536 11.603638.919922 23.209107.991211 34.816559.098633 16.057709-2.295166 31.789337-8.018676 46.839478-4.597657 12.089965-11.813721 22.021179-24.608521 26.680999-8.061523 2.936036-16.481079 5.390503-23.96228-.371612-4.442505-3.421723-7.487915-8.657501-11.582642-13.584503-1.759888.527679-4.66333 1.398193-8.709717 2.611419 4.205933 7.13974 7.498291 14.40094 12.274292 20.500489 11.256836 14.376403 26.823853 20.267974 44.642578 18.422577 16.214722-1.679322 30.803345-8.72873 44.257081-17.714661 13.045532-8.713287 25.344604-18.433319 35.066162-30.950592 7.448608-9.590668 14.676513-19.352478 22.061279-28.993195 1.40271-1.831238 3.080933-3.451385 4.63208-5.168854v173.000031c-573.028076 0-1146.056091 0-1719.540848-.36792-9.482422-15.598511-18.512207-30.826721-27.528091-46.06311-1.018494-1.721192-1.621048-2.648346-4.412079-2.054932-4.046173.860291-8.539414.386505-12.716171-.292358-9.356095-1.52063-18.520493-13.872742-18.895722-24.345612-.046737-1.304687-1.075271-3.375641-2.109329-3.723785-16.60318-5.589417-33.281158-10.956604-49.873093-16.351868-6.22171 10.684631-16.377739 10.660858-23.381332 7.96463-9.580254-3.688263-12.585907-12.12677-10.372017-20.993133 1.949226-7.806397 10.067726-13.594941 17.612877-12.727417 9.659828 1.110595 18.472298 7.856506 18.432106 19.765655 15.511833 4.722168 31.194893 9.339142 46.749153 14.355438 3.381088 1.090424 4.903534.860718 6.317719-2.535156.919937-2.209076 3.040802-3.91803 4.614288-5.839599-7.631973-12.905793-15.302002-25.875916-22.897415-38.71988-10.508179 2.882233-18.42041-.73291-22.236771-9.777435-3.588364-8.504211-.480118-18.155853 7.376724-22.905853 8.253937-4.990082 16.261155-3.079926 23.668061 6.003631 4.403686 5.400513 5.42427 16.099335-2.30243 22.871308 3.184693 5.737274 6.271378 11.447571 9.501465 17.075531 3.316803 5.779083 6.91832 11.398895 10.10579 17.246216 1.500473 2.752594 2.773361 3.988281 6.083908 2.446685 5.72705-2.666839 11.642547-1.881225 17.516235-.024109 11.846008 3.745423 21.542511 19.364777 17.131165 30.158631-2.053422 5.024353-5.764954 9.356232-8.544541 14.107483-.852478 1.457123-2.063599 3.799072-1.487991 4.829223 6.364273 11.389862 13.00235 22.628418 19.675125 33.84314 1.905624 3.202759 4.162979 6.196289 6.259048 9.285736.317047-.179718.634079-.359466.951126-.539184 0-73.47934 0-146.95868 0-220.972901-2.335968 1.174439-4.211959 2.081513-6.055572 3.050232-15.142822 7.956665-31.270187 11.772919-48.364899 12.322113-14.6875.471832-28.496139-2.274658-42.054016-7.961822-13.488609-5.658142-26.298996-12.092804-36.99472-22.29419-1.220658-1.164245-3.465775-1.759308-5.238541-1.764862-32.329498-.101395-64.659397-.072052-96.989212-.070526m358.975403 46.867645c12.585083.110108 25.170074.264954 37.755279.28067 1.828095.002289 3.657044-.661407 6.230042-1.116973 1.982452-.656922 5.531708 2.361175 5.917877-1.757447 1.257629-13.412689 2.087952-26.865173 3.125824-40.29898.276764-3.581696-1.795532-4.02237-4.682373-4.01355-19.453247.059417-38.907623.125488-58.359558-.04654-4.071838-.035995-4.946655 1.517151-5.05777 5.279328-.379364 12.842224-1.186401 25.671448-1.687103 38.5112-.035004.896789 1.045685 2.594299 1.69638 2.639465 4.698884.325958 9.420716.321838 15.061402.522827m-95.065125.079102c11.031952-.052826 22.063874-.105683 34.014191.039398h33.344513c.701752-2.049194 1.583771-3.538483 1.679626-5.076813.761078-12.211639 1.243683-24.44165 2.099274-36.645874.305451-4.356903-1.404907-5.387069-5.434631-5.343979-16.164673.172837-32.336457-.128524-48.496125.204026-4.322998.088958-6.492218-1.53357-7.631683-5.198624-.970276-3.120743-1.980926-6.283752-2.422089-9.503647-1.203979-8.787781-1.649261-17.702225-3.264923-26.405014-1.928619-10.388595.388428-20.274292 1.53534-31.526352 7.676147 13.208145 19.01355 19.583817 31.47876 24.417755 10.681304 4.142182 21.829193 3.721894 32.958892 3.079956 14.674408-.846405 27.736054-5.144867 36.907685-18.088241 1.245117.673889 2.437164 1.5345 3.767425 2.000717 5.045563 1.768265 10.088196 4.680893 15.217865 4.87323 20.364929.76358 36.534607-7.719513 48.49115-24.225037 6.279846-8.669098 8.626679-18.780777 9.702973-29.062683 1.099517-10.503372-.766999-20.732727-7.409699-29.365516-1.816101-2.36023-2.536713-3.96283-1.508179-6.944542 7.692414-22.299645-6.787628-42.495095-22.938354-52.892647-13.556305-8.72731-29.438446-10.317196-45.637573-8.673767-1.46045-12.291939-9.411652-20.393048-18.414093-27.567721-17.788025-14.176474-38.720307-17.349091-60.562348-15.853209-6.812439.46656-13.477753 3.081801-19.750061 4.601871 5.518433 10.583406 10.661041 20.016485 15.403046 29.646802 6.239563 12.671585 9.141205 26.415665 9.599487 40.303093.257324 7.798416-2.060638 15.937012-4.515228 23.501503-2.723206 8.392327-6.924103 16.305153-10.431214 24.311814 7.758576-2.149437 15.635529-4.837296 23.726258-6.457901 13.042022-2.612381 26.100036-5.010155 37.606201-12.151642 5.004455-3.10611 9.678863-6.742424 14.523834-10.108185 1.305267-.906738 2.686188-1.704537 4.03241-2.552338.271148 1.943154.926941 3.936913.680237 5.811951-.168641 1.281639-1.346131 2.791168-2.500824 3.524139-7.727234 4.904976-15.061676 11.032852-23.493409 14.082466-12.671814 4.583184-26.121978 7.035607-39.272033 10.268631-11.208283 2.755616-21.473541 6.81923-28.408417 16.898911-11.975739 17.406464-18.404007 36.12236-17.807846 57.688065.842483 30.476516.215103 60.993652.216034 91.493408.000046 1.807892-.000015 3.615814-.000015 6.737518 4.266449 0 8.124817 0 12.913543.158478m1070.094605 39.867065c.319336.920319.833862 1.820893.929199 2.763855 1.97644 19.545014 10.580444 35.408539 26.369995 47.185028 8.853638 6.603272 18.831543 10.44571 29.95105 8.927552 16.460571-2.247406 29.471191-11.169709 41.183472-22.479493 3.88562-3.752044 8.600097-6.645904 11.809448-9.078521 2.368896 8.513641 7.18042 18.801727 15.810913 26.150421 19.449707 16.561127 42.738769 14.374145 62.925537 3.075958 13.226563-7.402679 24.434692-17.329315 33.589966-27.604034 3.500854 5.805328 6.031006 12.990905 10.969116 17.591797 11.668091 10.871032 25.591797 11.568969 39.817261 4.870056 14.091675-6.635865 25.521728-16.672303 35.500488-28.502503 2.734619-3.241943 5.769531-6.230591 8.800781-9.479278.505738 1.859497.91687 3.434234 1.362427 4.999145 3.085083 10.835907 7.531738 21.026184 15.199707 29.437592 14.4198 15.817627 32.348877 18.824249 51.917847 12.606109 23.76709-7.552063 41.243042-23.694915 54.945679-43.874115 10.662963-15.702911 17.904419-33.253082 22.686157-51.561004 4.997803-19.135346 6.093139-38.288208-4.046509-56.613632-7.003662-12.658204-17.133789-17.614853-30.855835-14.328476-.650879.155899-1.371704.02005-3.316528.02005 2.738891-2.289704 4.571899-3.612961 6.160888-5.182999 14.82959-14.652359 29.514283-29.395523 42.241822-46.029602 14.610351-19.094971 28.227661-38.736862 37.105835-61.218338 3.767334-9.539887 5.820434-19.286873 5.293945-29.987145-.749268-15.22483-20.533325-25.357215-33.814575-21.90036-11.852417 3.084915-21.461304 9.664009-29.430908 18.106491-13.453492 14.251732-26.549073 28.966126-38.480957 44.495766-12.956421 16.863251-25.365479 34.309952-36.265137 52.546997-11.845337 19.819153-22.121094 40.625458-32.234986 61.413147-6.79248 13.961273-12.162841 28.618225-18.071777 43.004089-2.962646 7.212891-4.568848 15.270783-8.78418 21.622132-9.12622 13.750824-19.466796 26.702301-29.447265 39.877319-7.165283 9.458985-15.800781 17.341156-26.751465 22.165192-3.075806 1.355011-6.800903 1.235962-11.664795 2.026489 8.900024-46.335693 32.903931-84.041992 53.665649-123.384354-4.37207-3.877883-8.66687-7.687194-13.367431-11.856506-5.544556 6.054718-10.970947 11.980347-16.411133 17.921158-1.944702-2.515045-3.696167-5.349884-5.985718-7.648941-14.516968-14.577347-32.374145-17.86586-51.862427-14.568924-14.743652 2.494232-28.161865 8.576721-40.606567 16.740402-15.3479 10.068192-29.891724 21.146988-40.645264 36.310532-6.044067 8.522644-11.521362 17.44754-17.244629 26.197357-11.882202 18.165497-25.19165 35.12915-42.067504 48.976837-7.76648 6.373016-16.106202 11.821411-26.15149 14.140747-8.638061 1.994385-16.309936-1.929504-18.320923-9.906128-.794189-3.150482-1.279541-6.452606-1.349609-9.697662-.184326-8.541229-.089599-17.089142-.056518-25.634216.029785-7.680207 1.690673-13.771515 8.175293-19.747467 15.096313-13.912201 29.196044-29.004059 42.793334-44.417389 13.810303-15.654816 26.897828-31.987793 39.648804-48.527375 19.866577-25.769729 37.817017-52.834945 51.598877-82.430633 6.46521-13.88366 11.766236-28.063843 10.876099-43.932625-.831055-14.81572-12.904541-27.873795-30.760254-22.575394-13.647095 4.049568-24.734985 12.234337-34.982422 21.489724-19.824463 17.905311-36.830933 38.378372-52.159912 60.207214-20.266113 28.859238-36.572144 59.782928-47.671021 93.347244-6.635131 20.065613-12.503906 40.327332-16.527221 61.206513-3.79773 4.27008-7.373169 8.767761-11.453003 12.74887-4.444702 4.337189-9.883789 7.077546-16.661499 8.263367.342895-1.499267.454101-2.424896.764038-3.27832 7.192749-19.797058 12.95581-39.893036 9.261474-61.236786-2.538208-14.665207-9.961303-26.547577-23.453369-33.564179-7.068847-3.676178-14.477173-3.167678-21.43396 1.381424-7.184326 4.697846-11.250366 11.702668-14.844238 19.651429-3.564575-4.402329-7.177002-8.256043-10.044678-12.601181-2.22229-3.367051-4.270752-2.679337-6.800048-.98111-7.575562 5.086243-15.695923 9.543564-22.568604 15.450607-9.991821 8.588059-20.174438 17.361161-28.296631 27.621872-12.222412 15.440247-22.493652 32.408295-34.038574 48.406189-11.835327 16.400299-24.328247 32.270783-41.952026 43.131867-7.21045 4.443542-14.908326 6.709625-23.335083 5.871582-4.322632-.429871-7.999146-1.939942-9.147095-7.032776-2.534424-11.2435-4.119507-22.504303-4.168091-34.110901-.041748-9.953552 2.898682-17.99295 9.851929-25.085907 12.28601-12.532806 24.303833-25.333283 36.256958-38.18634 9.540161-10.258393 19.320678-20.355835 28.094726-31.249573 13.721924-17.037018 27.283081-34.267685 39.800171-52.193039 12.773316-18.292343 24.018799-37.654633 32.185181-58.540054 5.155273-13.184769 10.000732-26.564278 6.998535-41.22255-1.414673-6.90702-4.147461-13.081001-9.989868-17.302605-8.023682-5.797904-16.571411-4.648864-24.975342-.983787-11.841309 5.164185-22.295288 12.648834-31.183105 21.832138-12.362427 12.773483-24.173096 26.110497-35.737183 39.619476-13.907227 16.246003-25.77832 34.025284-36.053467 52.738816-12.303589 22.407837-23.213501 45.562973-30.898926 69.989441-4.513305 14.345092-7.516601 29.163971-11.251953 43.756225-.868652 3.393372-1.198242 7.241211-3.066894 10.00763-8.287232 12.267822-16.415894 24.738647-25.834473 36.115509-7.301331 8.819427-16.167725 16.426239-24.846435 23.989135-4.702759 4.098084-10.82306 4.963654-17.403748 3.328492.279785-3.651886.087707-7.206696.883301-10.524689 4.455139-18.58017 12.561645-35.799469 20.941772-52.794037 9.238159-18.734619 19.478943-36.973999 29.183533-55.481232.665527-1.269287 1.223755-3.805206.606079-4.342148-4.284302-3.724823-8.893494-7.076171-13.420288-10.564209-.941773.865632-1.641296 1.350739-2.141357 1.991501-10.56775 13.541199-21.193848 27.037964-31.642579 40.670624-13.64447 17.802094-25.324279 36.689667-31.617553 58.489807-2.3974 8.304535-3.559388 16.689972-1.987305 25.268952 2.475891 13.511078 11.764404 21.68338 23.111267 27.483581 4.561218 2.331604 10.525208 3.622223 15.557312 3.002838 13.783203-1.696594 25.056824-9.103729 34.486328-18.971893 9.159424-9.58551 17.748413-19.716156 26.190308-29.162476-.018921-.172454-.08606.696717.182861 1.445069 4.482544 12.470245 10.144531 24.410309 18.916992 34.403808 8.155762 9.290833 18.160035 15.566101 31.324585 14.692475 10.675537-.708435 20.216553-4.66623 29.224732-10.111481 12.639526-7.640411 23.012451-17.782196 31.78125-29.647186 3.329345 13.381744 9.07019 24.733978 19.792602 33.556152 19.662354 16.177673 45.457642 17.116913 66.298828 4.913849 19.240967-11.266113 33.805298-27.441864 46.378296-45.493408 2.125122-3.051178 3.901367-4.567902 7.664429-4.293854 11.793701.858856 22.765259-1.605804 32.515259-8.122803m-480.537415-258.794693c-3.178344 2.869553-6.270202 5.845688-9.59082 8.539933-.925415.750885-2.708252 1.228836-3.789795.879257-8.630798-2.789658-17.109558-6.06498-25.783936-8.701157-15.687683-4.767578-31.890991-6.915161-48.193054-7.592232-10.723388-.445381-21.572937-.118759-32.243835 1.013314-13.258667 1.406601-26.640198 3.022041-39.523316 6.298645-22.56958 5.740188-44.630798 13.496277-64.560485 25.774429-14.148865 8.716682-28.136719 18.034744-40.793702 28.742477-14.178039 11.994584-26.432495 25.988022-35.473449 42.693558-10.022461 18.519074-15.727295 37.83223-12.326722 58.740128 3.691834 22.699615 16.613831 39.498993 36.710267 50.530304 21.76239 11.9458 44.436523 10.904297 67.548828 4.362823 17.085083-4.835602 32.587036-13.029754 47.969909-21.519958 4.882752-2.694947 9.328309-6.18216 13.902283-9.258637-5.067871-6.351959-9.553223-11.973862-14.047363-17.606735-.952515.43544-1.734375.690918-2.409302 1.116211-19.681152 12.401993-40.019226 23.165695-63.54071 26.361404-15.721985 2.135987-30.203125-.628875-41.969666-11.705597-13.501282-12.709869-15.530212-29.091766-11.968201-46.205505 3.796753-18.241196 13.097779-34.004745 25.493531-47.67984 13.537903-14.93515 28.765625-27.941238 46.109985-38.532227 33.806458-20.643287 70.545166-30.889358 109.913635-32.186538 7.248841-.238846 14.556519.330253 21.79541.986007 12.387024 1.122116 24.781189 2.324478 37.091126 4.067444 5.588928.791359 10.98352 2.956116 16.999023 4.647667-6.130981 7.992012-11.765258 14.604782-16.594055 21.761116-18.411987 27.286698-34.23053 56.046204-48.073059 85.909805-10.195251 21.995011-20.299011 44.038895-30.933777 65.82161-8.223327 16.843384-16.85498 33.510712-25.944885 49.90152-10.367676 18.694915-22.672424 36.066589-38.60199 50.570556-1.125 1.024292-3.25592 2.084351-4.467468 1.700898-16.711304-5.289216-33.709595-8.363678-51.253662-9.746949-13.720215-1.081756-26.920593-.197235-39.63324 4.445679-15.983337 5.837494-19.238952 17.180023-14.986145 31.007752 2.999207 9.751556 10.892151 15.84439 20.162415 19.740448 13.686462 5.752044 27.969482 4.939422 42.220337 3.084045 22.42456-2.919556 43.369079-10.211029 62.789489-21.855408.950013-.56958 2.415223-.852905 3.468811-.587494 9.905884 2.495056 19.786072 5.095368 29.651184 7.748841 19.423096 5.224334 39.375855 6.607299 59.302979 7.516113 9.633789.439362 19.363464-1.070465 29.041992-1.800812 16.351807-1.233826 32.07721-5.140564 47.397949-10.951233 25.329041-9.606476 46.564698-24.952667 62.473877-46.745147 21.224976-29.074189 29.91034-62.694153 32.071472-98.107972.933045-15.290252-.706909-30.496185-3.742248-45.620285-6.782471-33.79573-22.911011-62.588958-46.516296-87.161178-9.793824-10.195038-21.258179-18.785347-32.193238-28.305924 4.7052-5.639923 10.044129-11.854698 15.09729-18.29377.765992-.976104.854004-3.464103.142639-4.448852-2.958679-4.096024-6.178161-8.044533-9.692626-11.668312-.836304-.862358-3.779175-.989777-4.732178-.209038-4.612122 3.778488-8.876282 7.981873-13.775208 12.528816m-524.388885 228.004227c-25.904419 0-51.808838 0-77.804901 0v92.711883h61.198333c.159302-.378295.369904-.789459.509766-1.223358 8.618622-26.739685 12.799927-54.402435 16.953461-82.062317.457397-3.045929.057922-6.220459-.856659-9.426208m21.478363-.023712c-2.975373 0-5.950745 0-9.728119 0-3.253845 31.490783-8.174866 62.478119-18.18161 93.001892 16.550018 0 32.177276-.080597 47.802337.069488 3.046113.029267 4.568818-.857177 5.940827-3.702209 10.751282-22.294495 19.421631-45.376953 26.400024-69.092102 1.899842-6.456329 2.970185-13.156708 4.538391-20.277069-19.222778 0-37.505951 0-56.77185 0m54.943329 93.004028c7.832061-.000885 15.672546-.214905 23.492279.095032 3.458313.137085 5.349884-1.124939 7.025268-3.932495 3.186829-5.34021 6.753601-10.452027 10.027008-15.742554 12.799317-20.686493 23.456574-42.381805 30.566986-65.712494.720398-2.3638.968659-4.87146 1.484101-7.563446-21.068939 0-41.361786 0-61.805573 0-6.331756 32.230194-16.764221 62.991425-31.812011 92.855621 7.380584 0 13.701416 0 21.021942.000336m81.493011-146.398743c-1.043915-.869506-2.082062-2.489257-3.132629-2.497345-19.652802-.151413-39.30716-.090789-58.960999-.135849-2.678192-.006149-3.844208.927323-3.950378 3.773423-.528137 14.155548-1.22937 28.304565-1.84964 42.013397 4.311645.410553 8.668304 1.139496 13.031921 1.183777 14.819092.150268 29.641815-.039154 44.46048.131866 3.461884.039948 4.938782-1.677704 5.328735-4.524322 1.780243-12.996094 3.401001-26.013977 5.07251-39.944947m-226.731842 231.273652c24.840912-19.179718 37.275482-46.403626 49.135559-74.540009-19.887329 0-38.959717 0-58.024185 0v79.446564c3.203445-1.836914 5.693375-3.26471 8.888626-4.906555m34.745941 5.623107c52.711151-11.676025 95.472473-39.313598 130.728516-80.50772-3.108338 0-5.092163 0-7.076019.00003-12.486664.000183-24.974427-.078888-37.458588.097321-1.62439.022949-4.030243.913055-4.724732 2.15567-10.538574 18.855438-24.900421 34.39035-41.363372 48.103271-13.309571 11.086182-27.825531 20.270539-43.8125 27.054322-3.466523 1.470947-6.876984 3.073944-10.313263 4.616119.12503.362518.250061.725006.375061 1.087494 4.293823-.736847 8.587646-1.473694 13.644897-2.606507m65.289185-80.507019c-12.498139 0-24.996674.054627-37.494049-.043365-2.684204-.020996-4.125641.674194-4.868164 3.524078-5.345215 20.515686-15.985535 38.295044-28.829315 54.888459-2.02298 2.613555-4.296387 5.03189-6.408631 7.578125-2.085968 2.514556-4.114441 5.076782-6.168152 7.618072 39.209229-13.260193 65.484772-42.140015 91.645447-73.56543-3.381195 0-5.163879 0-7.877136.000061m701.843201-226.948562c-5.111939-2.648102-10.147217-3.590439-15.129395.379013-9.206299 7.335037-13.584961 17.012298-12.899292 28.593841.587769 9.925202 11.406006 17.582428 20.275513 14.784119 12.050171-3.801834 25.751587-24.168854 13.666626-37.535507-1.760254-1.9469-3.484619-3.926239-5.913452-6.221466z"/><path d="m240.531342 1.000005c1.849563 1.210411 3.404922 2.272281 4.582748 3.655595 7.056015 8.287108 14.766434 16.144111 20.855423 25.098701 9.965881 14.656057 15.501282 31.206652 15.955444 49.049944.478211 18.789673-7.168823 34.903831-17.98468 49.674271-8.773407 11.981201-17.801819 23.853561-22.109894 38.290283-2.262649 7.582306-4.354248 15.505813-4.61412 23.338562-.65155 19.638641-.295365 39.313995-.141434 58.973053.027588 3.525375-1.001511 5.557724-4.056534 7.585235-18.844711 12.506592-39.598449 18.09079-61.947387 16.168702-19.79123-1.702118-37.443894-9.818055-52.790085-22.294877-5.861725-4.765716-11.598641-7.059616-19.210243-6.67517-18.645775.941726-37.062161-.953217-54.569115-7.928528-13.448921-5.358444-25.860588-12.448395-32.143724-26.419205-2.227827-4.953674-3.873664-10.529892-4.193246-15.916336-1.168765-19.699188.581931-39.059509 9.937108-56.969574 6.088323-11.655838 14.074419-21.313057 27.508447-24.938797.872559-.235497 1.613323-.95932 2.531597-1.527954-2.71146-7.732514-.78482-15.095558 2.016953-22.031632 3.920452-9.705467 9.391453-18.53862 16.505005-26.426204 12.918464-14.324139 28.761505-24.483731 45.991638-32.441017 12.136116-5.604754 24.883316-6.457779 37.393127-.269432.860489.425672 1.763016.766393 2.841156 1.230657 11.389817-17.203992 28.67331-23.865077 47.790482-27.313145.718414-.129578 1.331558-.842862 1.656876-1.598637 12.350677-.3145 25.038238-.3145 38.194458-.314495z" fill="#4682ef"/><path d="m1 256.468658c32.329815-.470184 64.659714-.499527 96.989212-.398132 1.772766.005554 4.017883.600617 5.238541 1.764862 10.695724 10.201386 23.506111 16.636048 36.99472 22.29419 13.557877 5.687164 27.366516 8.433654 42.054016 7.961822 17.094712-.549194 33.222077-4.365448 48.364899-12.322113 1.843613-.968719 3.719604-1.875793 6.055572-3.050232v220.972901c-.317047.179718-.634079.359466-.951126.539184-2.096069-3.089447-4.353424-6.082977-6.259048-9.285736-6.672775-11.214722-13.310852-22.453278-19.675125-33.84314-.575608-1.030151.635513-3.3721 1.487991-4.829223 2.779587-4.751251 6.491119-9.08313 8.544541-14.107483 4.411346-10.793854-5.285157-26.413208-17.131165-30.158631-5.873688-1.857116-11.789185-2.64273-17.516235.024109-3.310547 1.541596-4.583435.305909-6.083908-2.446685-3.18747-5.847321-6.788987-11.467133-10.10579-17.246216-3.230087-5.62796-6.316772-11.338257-9.501465-17.075531 7.7267-6.771973 6.706116-17.470795 2.30243-22.871308-7.406906-9.083557-15.414124-10.993713-23.668061-6.003631-7.856842 4.75-10.965088 14.401642-7.376724 22.905853 3.816361 9.044525 11.728592 12.659668 22.236771 9.777435 7.595413 12.843964 15.265442 25.814087 22.897415 38.71988-1.573486 1.921569-3.694351 3.630523-4.614288 5.839599-1.414185 3.395874-2.936631 3.62558-6.317719 2.535156-15.55426-5.016296-31.23732-9.63327-46.749153-14.355438.040192-11.909149-8.772278-18.65506-18.432106-19.765655-7.545151-.867524-15.663651 4.92102-17.612877 12.727417-2.21389 8.866363.791763 17.30487 10.372017 20.993133 7.003593 2.696228 17.159622 2.720001 23.381332-7.96463 16.591935 5.395264 33.269913 10.762451 49.873093 16.351868 1.034058.348144 2.062592 2.419098 2.109329 3.723785.375229 10.47287 9.539627 22.824982 18.895722 24.345612 4.176757.678863 8.669998 1.152649 12.716171.292358 2.791031-.593414 3.393585.33374 4.412079 2.054932 9.015884 15.236389 18.045669 30.464599 27.070144 46.06311-7.355453.36792-14.709701.36792-22.249435.003754-1.531738-.786957-2.850708-1.373749-4.229172-1.603302-5.147781-.857361-10.472503-1.052033-15.444763-2.486786-13.52478-3.902496-27.110687-7.752228-40.295502-12.639588-24.798355-9.192199-46.84732-23.344146-66.194763-41.171783-11.606727-10.694977-22.195114-22.678101-32.088245-35.007416-15.281254-19.044281-26.365898-40.611114-34.543709-63.637848-6.502562-18.30957-11.448553-36.973144-13.056069-56.421661-.049925-.604004-1.240661-1.11377-1.899548-1.66745.000001-9.687561.000001-19.375122.000001-29.531342z" fill="#4682ef"/><path d="m.999999 286.468658c.658887.085022 1.849623.594788 1.899548 1.198792 1.607516 19.448517 6.553507 38.112091 13.056069 56.421661 8.177811 23.026734 19.262455 44.593567 34.543709 63.637848 9.893131 12.329315 20.481518 24.312439 32.088245 35.007416 19.347443 17.827637 41.396408 31.979584 66.194763 41.171783 13.184815 4.88736 26.770722 8.737092 40.295502 12.639588 4.97226 1.434753 10.296982 1.629425 15.444763 2.486786 1.378464.229553 2.697434.816345 3.760544 1.603302-69.211548.364166-138.139961.364166-207.283142.364166 0-71.354095 0-142.708374-.000001-214.531342z"/><path d="m1951 327.583313c-1.551147 2.134125-3.22937 3.754272-4.63208 5.58551-7.384766 9.640717-14.612671 19.402527-22.061279 28.993195-9.721558 12.517273-22.02063 22.237305-35.066162 30.950592-13.453736 8.985931-28.042359 16.035339-44.257081 17.714661-17.818725 1.845397-33.385742-4.046174-44.642578-18.422577-4.776001-6.099549-8.068359-13.360749-12.274292-20.500489 4.046387-1.213226 6.949829-2.08374 8.709717-2.611419 4.094727 4.927002 7.140137 10.16278 11.582642 13.584503 7.481201 5.762115 15.900757 3.307648 23.96228.371612 12.7948-4.65982 20.010864-14.591034 24.608521-26.680999 5.72351-15.050141 8.117309-30.781769 8.018676-46.839478-.071289-11.607452-.591675-23.212921-.991211-34.816559-.049072-1.420288-.592407-2.823486-1.138061-5.272705-6.377075 10.230896-12.309815 19.618042-18.105713 29.088776-4.521851 7.38919-8.89978 14.867126-13.288818 22.336578-1.819092 3.095825-3.490723 3.823181-6.255372.718292-3.530029-3.964843-7.515991-7.523864-11.592041-11.540039 19.775513-33.223297 38.694214-66.669632 61.741578-97.711303 5.61499 5.883682 10.641235 11.150604 15.81726 16.574295-6.272583 7.214553-11.508789 16.020126-9.889404 26.861236 1.102417 7.379044 3.822876 14.505814 5.630615 21.792282 3.707032 14.942932 7.487549 29.775483 8.390137 45.361939.828003 14.296661-1.135986 27.965088-4.973267 42.522247 18.959229-16.346283 32.925049-35.577881 46.505494-56.352234 4.692016 4.759674 9.089843 9.220856 13.843994 13.695404.356445 1.402252.356445 2.791169.356445 4.59668z" fill="#06b871"/><path d="m1337.665649 310.103882c3.357178-20.913452 9.225953-41.175171 15.861084-61.240784 11.098877-33.564316 27.404908-64.488006 47.671021-93.347244 15.328979-21.828842 32.335449-42.301903 52.159912-60.207214 10.247437-9.255387 21.335327-17.440156 34.982422-21.489724 17.855713-5.298401 29.929199 7.759674 30.760254 22.575394.890137 15.868782-4.410889 30.048965-10.876099 43.932625-13.78186 29.595688-31.7323 56.660904-51.598877 82.430633-12.750976 16.539582-25.838501 32.872559-39.648804 48.527375-13.59729 15.41333-27.697021 30.505188-42.793334 44.417389-6.48462 5.975952-8.145508 12.06726-8.175293 19.747467-.033081 8.545074-.127808 17.092987.056518 25.634216.070068 3.245056.55542 6.54718 1.349609 9.697662 2.010987 7.976624 9.682862 11.900513 18.320923 9.906128 10.045288-2.319336 18.38501-7.767731 26.15149-14.140747 16.875854-13.847687 30.185302-30.81134 42.067504-48.976837 5.723267-8.749817 11.200562-17.674713 17.244629-26.197357 10.75354-15.163544 25.297364-26.24234 40.645264-36.310532 12.444702-8.163681 25.862915-14.24617 40.606567-16.740402 19.488282-3.296936 37.345459-.008423 51.862427 14.568924 2.289551 2.299057 4.041016 5.133896 5.985718 7.648941 5.440186-5.940811 10.866577-11.86644 16.411133-17.921158 4.700561 4.169312 8.995361 7.978623 13.367431 11.856506-20.761718 39.342362-44.765625 77.048661-53.665649 123.384354 4.863892-.790527 8.588989-.671478 11.664795-2.026489 10.950684-4.824036 19.586182-12.706207 26.751465-22.165192 9.980469-13.175018 20.321045-26.126495 29.447265-39.877319 4.215332-6.351349 5.821534-14.409241 8.78418-21.622132 5.908936-14.385864 11.279297-29.042816 18.071777-43.004089 10.113892-20.787689 20.389649-41.593994 32.234986-61.413147 10.899658-18.237045 23.308716-35.683746 36.265137-52.546997 11.931884-15.52964 25.027465-30.244034 38.480957-44.495766 7.969604-8.442482 17.578491-15.021576 29.430908-18.106491 13.28125-3.456855 33.065307 6.67553 33.814575 21.90036.526489 10.700272-1.526611 20.447258-5.293945 29.987145-8.878174 22.481476-22.495484 42.123367-37.105835 61.218338-12.727539 16.634079-27.412232 31.377243-42.241822 46.029602-1.588989 1.570038-3.421997 2.893295-6.160888 5.182999 1.944824 0 2.665649.135849 3.316528-.02005 13.722046-3.286377 23.852173 1.670272 30.855835 14.328476 10.139648 18.325424 9.044312 37.478286 4.046509 56.613632-4.781738 18.307922-12.023194 35.858093-22.686157 51.561004-13.702637 20.1792-31.178589 36.322052-54.945679 43.874115-19.56897 6.21814-37.498047 3.211518-51.917847-12.606109-7.667969-8.411408-12.114624-18.601685-15.199707-29.437592-.445557-1.564911-.856689-3.139648-1.362427-4.999145-3.03125 3.248687-6.066162 6.237335-8.800781 9.479278-9.97876 11.8302-21.408813 21.866638-35.500488 28.502503-14.225464 6.698913-28.14917 6.000976-39.817261-4.870056-4.93811-4.600892-7.468262-11.786469-10.969116-17.591797-9.155274 10.274719-20.363403 20.201355-33.589966 27.604034-20.186768 11.298187-43.47583 13.485169-62.925537-3.075958-8.630493-7.348694-13.442017-17.63678-15.810913-26.150421-3.209351 2.432617-7.923828 5.326477-11.809448 9.078521-11.712281 11.309784-24.722901 20.232087-41.183472 22.479493-11.119507 1.518158-21.097412-2.32428-29.95105-8.927552-15.789551-11.776489-24.393555-27.640014-26.369995-47.185028-.095337-.942962-.609863-1.843536-.955566-3.632355.878173-11.19284 1.782714-21.51712 2.687133-31.84143m394.524414-78.823044c7.479615-6.472122 15.23169-12.65863 22.381714-19.476486 14.356079-13.689026 28.232911-27.823548 39.504639-44.32222 10.807861-15.820084 22.746582-30.94223 30.432861-48.663712 3.119507-7.192352 5.300171-14.791832 7.908081-22.20607-.596923-.494117-1.193725-.988243-1.790649-1.48236-4.718018 2.9701-9.950806 5.360656-14.062378 9.013404-15.55896 13.822587-28.577637 29.921166-39.705566 47.448876-10.606568 16.706848-20.832398 33.664871-30.84253 50.737121-5.447265 9.290329-10.097656 19.047867-15.614624 28.838791-.054565.43126-.109008.862534-.163574 1.293763.471314-.252823.942505-.505646 1.952026-1.181107m-190.710205 126.786942c6.885376-8.169373 14.570313-15.802369 20.486939-24.621735 11.754028-17.520172 22.495727-35.717926 33.739868-53.582703 3.344116-5.313232 3.085205-12.202759-1.186157-16.783447-5.371338-5.760284-11.961182-5.271271-19.131104-4.220642-21.425415 3.139557-39.284546 13.356537-55.022583 27.444366-15.848022 14.186341-28.417602 31.001282-36.86084 50.685181-4.704589 10.967743-7.776855 22.305237-7.499389 34.368591.224243 9.74289 2.790283 14.253662 9.804565 15.355622 4.373902.687103 9.149903.971985 13.392578-.040833 17.324952-4.135834 30.037476-15.493042 42.276123-28.6044m218.987183-75.089417c-9.769043-11.275146-14.216675-23.655731-7.177612-38.48967-14.267578 10.403641-28.067139 20.170792-41.477051 30.446518-3.464722 2.654907-6.475342 6.540833-8.351685 10.498078-3.979492 8.392273-7.279541 17.128357-10.491699 25.858337-7.108154 19.319122-13.451538 38.848907-11.907226 59.876892.326171 4.442841.287109 9.853394 5.559082 11.509216 13.049682 4.098481 25.819336 3.397522 37.934204-3.676086 12.924316-7.546417 22.371093-18.519836 30.591308-30.700836 10.486817-15.539856 18.521607-32.287445 24.300415-49.047302-6.528076-5.576264-12.497314-10.675202-18.979736-16.275147m-331.477539-113.448578c-23.356445 33.303436-38.632202 70.364762-50.288696 109.452332 2.18103-1.197419 3.362671-3.236664 4.86499-5.003113 11.736206-13.79837 23.479736-27.591431 35.326416-41.294861 15.995239-18.501938 31.21814-37.553955 44.298462-58.295486 11.81665-18.73787 23.717773-37.406174 32.004272-58.052628 2.822998-7.033424 5.713623-14.204849 4.529908-22.271995-1.137818 0-1.844117-.151787-2.447388.033142-1.090454.33432-2.143311.821029-3.170166 1.328498-13.305176 6.575242-22.590576 17.777314-31.559815 28.899376-11.619384 14.407982-22.088256 29.743828-33.557983 45.204735m353.691162 110.03421c-.225952-6.063079-.279053-12.140533-.782471-18.18045-.152221-1.827026-1.316894-4.841003-2.429687-5.043121-2.101807-.381745-5.0719.211425-6.678467 1.578094-6.425171 5.465912-4.834106 15.533966 2.783325 19.260223 2.045777 1.000702 4.205567 1.767945 7.1073 2.385254m-21.799438-41.383865c-.325562-.108444-.645874-.244995-.980103-.305939-.085449-.015579-.2146.207764-.32373.321289.322753.185654.645507.371308 1.303833-.01535m-6.435425 4.075745c.013305.383178.026733.766342.040039 1.149505.148804-.052444.400513-.073105.428222-.162964.102173-.331054.130372-.685028-.468261-.986541z" fill="#06b871"/><path d="m854.723145 83.772034c4.643249-4.299858 8.907409-8.503243 13.519531-12.281731.953003-.780739 3.895874-.65332 4.732178.209038 3.514465 3.623779 6.733947 7.572288 9.692626 11.668312.711365.984749.623353 3.472748-.142639 4.448852-5.053161 6.439072-10.39209 12.653847-15.09729 18.29377 10.935059 9.520577 22.399414 18.110886 32.193238 28.305924 23.605285 24.57222 39.733825 53.365448 46.516296 87.161178 3.035339 15.1241 4.675293 30.330033 3.742248 45.620285-2.161132 35.413819-10.846496 69.033783-32.071472 98.107972-15.909179 21.79248-37.144836 37.138671-62.473877 46.745147-15.320739 5.810669-31.046142 9.717407-47.397949 10.951233-9.678528.730347-19.408203 2.240174-29.041992 1.800812-19.927124-.908814-39.879883-2.291779-59.302979-7.516113-9.865112-2.653473-19.7453-5.253785-29.651184-7.748841-1.053588-.265411-2.518798.017914-3.468811.587494-19.42041 11.644379-40.364929 18.935852-62.789489 21.855408-14.250855 1.855377-28.533875 2.667999-42.220337-3.084045-9.270264-3.896058-17.163208-9.988892-20.162415-19.740448-4.252807-13.827729-.997192-25.170258 14.986145-31.007752 12.712647-4.642914 25.913025-5.527435 39.63324-4.445679 17.544067 1.383271 34.542358 4.457733 51.253662 9.746949 1.211548.383453 3.342468-.676606 4.467468-1.700898 15.929566-14.503967 28.234314-31.875641 38.60199-50.570556 9.089905-16.390808 17.721558-33.058136 25.944885-49.90152 10.634766-21.782715 20.738526-43.826599 30.933777-65.82161 13.842529-29.863601 29.661072-58.623107 48.073059-85.909805 4.828797-7.156334 10.463074-13.769104 16.594055-21.761116-6.015503-1.691551-11.410095-3.856308-16.999023-4.647667-12.309937-1.742966-24.704102-2.945328-37.091126-4.067444-7.238891-.655754-14.546569-1.224853-21.79541-.986007-39.368469 1.29718-76.107177 11.543251-109.913635 32.186538-17.34436 10.590989-32.572082 23.597077-46.109985 38.532227-12.395752 13.675095-21.696778 29.438644-25.493531 47.67984-3.562011 17.113739-1.533081 33.495636 11.968201 46.205505 11.766541 11.076722 26.247681 13.841584 41.969666 11.705597 23.521484-3.195709 43.859558-13.959411 63.54071-26.361404.674927-.425293 1.456787-.680771 2.409302-1.116211 4.49414 5.632873 8.979492 11.254776 14.047363 17.606735-4.573974 3.076477-9.019531 6.56369-13.902283 9.258637-15.382873 8.490204-30.884826 16.684356-47.969909 21.519958-23.112305 6.541474-45.786438 7.582977-67.548828-4.362823-20.096436-11.031311-33.018433-27.830689-36.710267-50.530304-3.400573-20.907898 2.304261-40.221054 12.326722-58.740128 9.040954-16.705536 21.29541-30.698974 35.473449-42.693558 12.656983-10.707733 26.644837-20.025795 40.793702-28.742477 19.929687-12.278152 41.990905-20.034241 64.560485-25.774429 12.883118-3.276604 26.264649-4.892044 39.523316-6.298645 10.670898-1.132073 21.520447-1.458695 32.243835-1.013314 16.302063.677071 32.505371 2.824654 48.193054 7.592232 8.674378 2.636177 17.153138 5.911499 25.783936 8.701157 1.081543.349579 2.86438-.128372 3.789795-.879257 3.320618-2.694245 6.412476-5.67038 9.846497-8.787018m56.833435 102.291198c-4.485718-9.206878-8.367371-18.773284-13.587403-27.543106-9.775146-16.422714-22.273315-30.337082-40.661438-38.866066-.675659.896431-1.467285 1.765648-2.056091 2.755501-7.156738 12.031449-15.038025 23.704758-21.264099 36.20195-13.789795 27.679703-26.858338 55.722092-39.991333 83.724304-6.554016 13.974457-12.730347 28.130707-18.851868 42.302216-10.419067 24.120453-22.408264 47.388336-36.675415 69.477234-9.286438 14.377472-19.999756 27.592926-32.299438 40.094116 18.453247 5.059876 36.803527 8.474182 55.373657 8.508087 14.87207.027161 30.088623-.902099 44.551086-4.114166 28.519043-6.333954 53.014771-20.317169 72.115357-43.162201 12.930908-15.46582 22.549438-32.595093 29.330993-51.496735 8.647339-24.101806 13.416077-48.837249 12.404358-74.493133-.57489-14.579727-3.710266-28.756485-8.388366-43.388001m-331.21344 217.111268c-1.626953 6.33435-1.687928 7.178405 4.757934 7.644256 10.089722.729248 20.343628.941864 30.395508-.015991 11.799866-1.12439 22.922241-5.245789 33.398438-11.460083-.754578-.52768-1.240784-1.136078-1.808777-1.225678-14.901062-2.35086-29.68097-5.707-44.983094-4.196991-8.05072.794465-15.281005 3.036744-21.760009 9.254487z" fill="#4682ef"/><path d="m1337.33252 310.086731c-.57129 10.341461-1.475831 20.665741-2.438843 31.454468-9.638794 7.789612-20.610352 10.254272-32.404053 9.395416-3.763062-.274048-5.539307 1.242676-7.664429 4.293854-12.572998 18.051544-27.137329 34.227295-46.378296 45.493408-20.841186 12.203064-46.636474 11.263824-66.298828-4.913849-10.722412-8.822174-16.463257-20.174408-19.792602-33.556152-8.768799 11.86499-19.141724 22.006775-31.78125 29.647186-9.008179 5.445251-18.549195 9.403046-29.224732 10.111481-13.16455.873626-23.168823-5.401642-31.324585-14.692475-8.772461-9.993499-14.434448-21.933563-18.916992-34.403808-.268921-.748352-.201782-1.617523-.182861-1.445069-8.441895 9.44632-17.030884 19.576966-26.190308 29.162476-9.429504 9.868164-20.703125 17.275299-34.486328 18.971893-5.032104.619385-10.996094-.671234-15.557312-3.002838-11.346863-5.800201-20.635376-13.972503-23.111267-27.483581-1.572083-8.57898-.410095-16.964417 1.987305-25.268952 6.293274-21.80014 17.973083-40.687713 31.617553-58.489807 10.448731-13.63266 21.074829-27.129425 31.642579-40.670624.500061-.640762 1.199584-1.125869 2.141357-1.991501 4.526794 3.488038 9.135986 6.839386 13.420288 10.564209.617676.536942.059448 3.072861-.606079 4.342148-9.70459 18.507233-19.945374 36.746613-29.183533 55.481232-8.380127 16.994568-16.486633 34.213867-20.941772 52.794037-.795594 3.317993-.603516 6.872803-.883301 10.524689 6.580688 1.635162 12.700989.769592 17.403748-3.328492 8.67871-7.562896 17.545104-15.169708 24.846435-23.989135 9.418579-11.376862 17.547241-23.847687 25.834473-36.115509 1.868652-2.766419 2.198242-6.614258 3.066894-10.00763 3.735352-14.592254 6.738648-29.411133 11.251953-43.756225 7.685425-24.426468 18.595337-47.581604 30.898926-69.989441 10.275147-18.713532 22.14624-36.492813 36.053467-52.738816 11.564087-13.508979 23.374756-26.845993 35.737183-39.619476 8.887817-9.183304 19.341796-16.667953 31.183105-21.832138 8.403931-3.665077 16.95166-4.814117 24.975342.983787 5.842407 4.221604 8.575195 10.395585 9.989868 17.302605 3.002197 14.658272-1.843262 28.037781-6.998535 41.22255-8.166382 20.885421-19.411865 40.247711-32.185181 58.540054-12.51709 17.925354-26.078247 35.156021-39.800171 52.193039-8.774048 10.893738-18.554565 20.99118-28.094726 31.249573-11.953125 12.853057-23.970948 25.653534-36.256958 38.18634-6.953247 7.092957-9.893677 15.132355-9.851929 25.085907.048584 11.606598 1.633667 22.867401 4.168091 34.110901 1.147949 5.092834 4.824463 6.602905 9.147095 7.032776 8.426757.838043 16.124633-1.42804 23.335083-5.871582 17.623779-10.861084 30.116699-26.731568 41.952026-43.131867 11.544922-15.997894 21.816162-32.965942 34.038574-48.406189 8.122193-10.260711 18.30481-19.033813 28.296631-27.621872 6.872681-5.907043 14.993042-10.364364 22.568604-15.450607 2.529296-1.698227 4.577758-2.385941 6.800048.98111 2.867676 4.345138 6.480103 8.198852 10.044678 12.601181 3.593872-7.948761 7.659912-14.953583 14.844238-19.651429 6.956787-4.549102 14.365113-5.057602 21.43396-1.381424 13.492066 7.016602 20.915161 18.898972 23.453369 33.564179 3.694336 21.34375-2.068725 41.439728-9.261474 61.236786-.309937.853424-.421143 1.779053-.764038 3.27832 6.77771-1.185821 12.216797-3.926178 16.661499-8.263367 4.079834-3.981109 7.655273-8.47879 11.786011-12.73175m-60.305054 32.652344c.110351-1.267212.785278-2.895081.242309-3.744934-4.631958-7.250977-10.428588-13.911988-14.084716-21.601593-8.950196-18.823731-10.872803-38.656495-5.300293-59.097596-1.03711.401947-1.935303.532654-2.542725 1.023316-2.558472 2.067016-5.136108 4.130218-7.516724 6.394592-15.781372 15.010986-29.100463 32.06488-39.613159 51.048432-8.942993 16.149078-16.204223 33.048858-15.292236 52.327087.62207 13.147613 6.241943 19.413788 19.151245 18.787292 12.495361-.606445 24.077271-5.279358 33.38208-13.2341 11.196411-9.571869 21.038208-20.728088 31.574219-31.902496m-172.00232-77.282715c8.762574-10.422165 17.598389-20.783966 26.266358-31.284256 8.011841-9.705414 16.231201-19.275482 23.662231-29.415802 10.504517-14.334076 20.572388-29.001267 30.447266-43.779709 9.496704-14.212448 18.195923-28.96344 24.038452-45.095993 2.490723-6.877167 3.557617-14.269928 5.531616-22.514168-2.528564.840828-3.547851.950272-4.289306 1.462227-6.686646 4.617004-14.153321 8.480331-19.795166 14.152245-10.087281 10.140846-19.243409 21.23516-28.467163 32.201301-14.508789 17.249588-26.831177 36.115616-36.880127 56.179871-10.681397 21.326797-19.800904 43.443451-29.335205 65.331589-2.312867 5.309722-3.577515 11.076019-5.324219 16.632354.307251.144745.614502.289521.921753.434265 4.243774-4.59552 8.487426-9.19104 13.22351-14.303924m174.371338 51.433716c2.05542 3.506378 4.11084 7.012756 6.864991 11.711334 10.640747-25.996979 19.948242-50.38974 10.507568-77.23848-5.401001-1.322372-10.055664.046051-13.264282 3.877167-6.127442 7.316055-9.052735 16.059036-9.505493 25.606857-.573853 12.10019 1.429809 23.828949 5.397216 36.043122z" fill="#4682ef"/><g fill="#06b871"><path d="m263.979889 302.788269c-3.858337 0-7.716705 0-11.983154 0 0-3.121704.000061-4.929626.000015-6.737518-.000931-30.499756.626449-61.016892-.216034-91.493408-.596161-21.565705 5.832107-40.281601 17.807846-57.688065 6.934876-10.079681 17.200134-14.143295 28.408417-16.898911 13.150055-3.233024 26.600219-5.685447 39.272033-10.268631 8.431733-3.049614 15.766175-9.17749 23.493409-14.082466 1.154693-.732971 2.332183-2.2425 2.500824-3.524139.246704-1.875038-.409089-3.868797-.680237-5.811951-1.346222.847801-2.727143 1.6456-4.03241 2.552338-4.844971 3.365761-9.519379 7.002075-14.523834 10.108185-11.506165 7.141487-24.564179 9.539261-37.606201 12.151642-8.090729 1.620605-15.967682 4.308464-23.726258 6.457901 3.507111-8.006661 7.708008-15.919487 10.431214-24.311814 2.45459-7.564491 4.772552-15.703087 4.515228-23.501503-.458282-13.887428-3.359924-27.631508-9.599487-40.303093-4.742005-9.630317-9.884613-19.063396-15.403046-29.646802 6.272308-1.52007 12.937622-4.135311 19.750061-4.601871 21.842041-1.495882 42.774323 1.676735 60.562348 15.853209 9.002441 7.174673 16.953643 15.275782 18.414093 27.567721 16.199127-1.643429 32.081268-.053543 45.637573 8.673767 16.150726 10.397552 30.630768 30.593002 22.938354 52.892647-1.028534 2.981712-.307922 4.584312 1.508179 6.944542 6.6427 8.632789 8.509216 18.862144 7.409699 29.365516-1.076294 10.281906-3.423127 20.393585-9.702973 29.062683-11.956543 16.505524-28.126221 24.988617-48.49115 24.225037-5.129669-.192337-10.172302-3.104965-15.217865-4.87323-1.330261-.466217-2.522308-1.326828-3.767425-2.000717-9.171631 12.943374-22.233277 17.241836-36.907685 18.088241-11.129699.641938-22.277588 1.062226-32.958892-3.079956-12.46521-4.833938-23.802613-11.20961-31.47876-24.417755-1.146912 11.25206-3.463959 21.137757-1.53534 31.526352 1.615662 8.702789 2.060944 17.617233 3.264923 26.405014.441163 3.219895 1.451813 6.382904 2.422089 9.503647 1.139465 3.665054 3.308685 5.287582 7.631683 5.198624 16.159668-.33255 32.331452-.031189 48.496125-.204026 4.029724-.04309 5.740082.987076 5.434631 5.343979-.855591 12.204224-1.338196 24.434235-2.099274 36.645874-.095855 1.53833-.977874 3.027619-1.679626 5.076813-11.270874 0-22.307678 0-34.177521-.271606-11.925873-.156495-23.018707-.041382-34.111572.07373z"/><path d="m330.534851 312.068787c.458313 3.160308.857788 6.334838.400391 9.380767-4.153534 27.659882-8.334839 55.322632-16.953461 82.062317-.139862.433899-.350464.845063-.509766 1.223358-20.412048 0-40.667327 0-61.198333 0 0-30.835693 0-61.402832 0-92.711883 25.996063 0 51.900482 0 78.261169.045441z"/><path d="m352.04834 311.999634h56.280456c-1.568206 7.120361-2.638549 13.82074-4.538391 20.277069-6.978393 23.715149-15.648742 46.797607-26.400024 69.092102-1.372009 2.845032-2.894714 3.731476-5.940827 3.702209-15.625061-.150085-31.252319-.069488-47.802337-.069488 10.006744-30.523773 14.927765-61.511109 18.18161-93.001892z"/><path d="m406.000427 405.003479c-6.820678-.000153-13.14151-.000153-20.522094-.000153 15.04779-29.864196 25.480255-60.625427 31.812011-92.855621h61.805573c-.515442 2.691986-.763703 5.199646-1.484101 7.563446-7.110412 23.330689-17.767669 45.026001-30.566986 65.712494-3.273407 5.290527-6.840179 10.402344-10.027008 15.742554-1.675384 2.807556-3.566955 4.06958-7.025268 3.932495-7.819733-.309937-15.660218-.095917-23.992127-.095215z"/><path d="m359.049255 302.767151c-4.714538-.100495-9.43637-.096375-14.135254-.422333-.650695-.045166-1.731384-1.742676-1.69638-2.639465.500702-12.839752 1.307739-25.668976 1.687103-38.5112.111115-3.762177.985932-5.315323 5.05777-5.279328 19.451935.172028 38.906311.105957 58.359558.04654 2.886841-.00882 4.959137.431854 4.682373 4.01355-1.037872 13.433807-1.868195 26.886291-3.125824 40.29898-.386169 4.118622-3.935425 1.100525-6.769928 1.758728-11.310364-.005218-21.769318-.079559-32.226684.016663-3.946106.036255-7.888611.46698-11.832734.717865z"/><path d="m487.996582 259.065369c-1.674805 13.47052-3.295563 26.488403-5.075806 39.484497-.389953 2.846618-1.866851 4.56427-5.328735 4.524322-14.818665-.17102-29.641388.018402-44.46048-.131866-4.363617-.044281-8.720276-.773224-13.031921-1.183777.62027-13.708832 1.321503-27.857849 1.84964-42.013397.10617-2.8461 1.272186-3.779572 3.950378-3.773423 19.653839.04506 39.308197-.015564 58.960999.135849 1.050567.008088 2.088714 1.627839 3.135925 2.957795z"/><path d="m260.908813 489.985596c-2.84262 1.53482-5.33255 2.962616-8.535995 4.79953 0-27.044281 0-53.072266 0-79.446564h58.024185c-11.860077 28.136383-24.294647 55.360291-49.48819 74.647034z"/><path d="m295.625671 495.699646c-4.675537.934845-8.96936 1.671692-13.263183 2.408539-.125-.362488-.250031-.724976-.375061-1.087494 3.436279-1.542175 6.84674-3.145172 10.313263-4.616119 15.986969-6.783783 30.502929-15.96814 43.8125-27.054322 16.462951-13.712921 30.824798-29.247833 41.363372-48.103271.694489-1.242615 3.100342-2.132721 4.724732-2.15567 12.484161-.176209 24.971924-.097138 37.458588-.097321 1.983856-.00003 3.967681-.00003 7.076019-.00003-35.256043 41.194122-78.017365 68.831695-131.11023 80.705688z"/><path d="m361.761841 414.994629c2.247986-.000031 4.03067-.000031 7.411865-.000031-26.160675 31.425415-52.436218 60.305237-91.645447 73.56543 2.053711-2.54129 4.082184-5.103516 6.168152-7.618072 2.112244-2.546235 4.385651-4.96457 6.408631-7.578125 12.84378-16.593415 23.4841-34.372773 28.829315-54.888459.742523-2.849884 2.18396-3.545074 4.868164-3.524078 12.497375.097992 24.99591.043365 37.95932.043335z"/></g><path d="m1063.483643 188.211548c2.084961 2.129776 3.809326 4.109115 5.56958 6.056015 12.084961 13.366653-1.616455 33.733673-13.666626 37.535507-8.869507 2.798309-19.687744-4.858917-20.275513-14.784119-.685669-11.581543 3.692993-21.258804 12.899292-28.593841 4.982178-3.969452 10.017456-3.027115 15.473267-.213562z" fill="#4682f0"/><path d="m359.512329 302.817383c3.481049-.301117 7.423554-.731842 11.36966-.768097 10.457366-.096222 20.91632-.021881 31.854461.033356-1.348724.404266-3.177673 1.067962-5.005768 1.065673-12.585205-.015716-25.170196-.170562-38.218353-.330932z" fill="#009a9a"/><path d="m264.445068 302.867493c10.627686-.194336 21.72052-.309449 33.187195-.251892-10.658111.225463-21.690033.27832-33.187195.251892z" fill="#0a5"/><path d="m1541.28125 358.365417c-12.040039 12.813721-24.752563 24.170929-42.077515 28.306763-4.242675 1.012818-9.018676.727936-13.392578.040833-7.014282-1.10196-9.580322-5.612732-9.804565-15.355622-.277466-12.063354 2.7948-23.400848 7.499389-34.368591 8.443238-19.683899 21.012818-36.49884 36.86084-50.685181 15.738037-14.087829 33.597168-24.304809 55.022583-27.444366 7.169922-1.050629 13.759766-1.539642 19.131104 4.220642 4.271362 4.580688 4.530273 11.470215 1.186157 16.783447-11.244141 17.864777-21.98584 36.062531-33.739868 53.582703-5.916626 8.819366-13.601563 16.452362-20.685547 24.919372z"/><path d="m1760.723633 283.228882c6.22583 5.349426 12.195068 10.448364 18.723144 16.024628-5.778808 16.759857-13.813598 33.507446-24.300415 49.047302-8.220215 12.181-17.666992 23.154419-30.591308 30.700836-12.114868 7.073608-24.884522 7.774567-37.934204 3.676086-5.271973-1.655822-5.232911-7.066375-5.559082-11.509216-1.544312-21.027985 4.799072-40.55777 11.907226-59.876892 3.212158-8.72998 6.512207-17.466064 10.491699-25.858337 1.876343-3.957245 4.886963-7.843171 8.351685-10.498078 13.409912-10.275726 27.209473-20.042877 41.477051-30.446518-7.039063 14.833939-2.591431 27.214524 7.434204 38.740189z"/><path d="m1429.242188 169.267517c11.217041-15.198639 21.685913-30.534485 33.305297-44.942467 8.969239-11.122062 18.254639-22.324134 31.559815-28.899376 1.026855-.507469 2.079712-.994178 3.170166-1.328498.603271-.184929 1.30957-.033142 2.447388-.033142 1.183715 8.067146-1.70691 15.238571-4.529908 22.271995-8.286499 20.646454-20.187622 39.314758-32.004272 58.052628-13.080322 20.741531-28.303223 39.793548-44.298462 58.295486-11.84668 13.70343-23.59021 27.496491-35.326416 41.294861-1.502319 1.766449-2.68396 3.805694-4.86499 5.003113 11.656494-39.08757 26.932251-76.148896 50.541382-109.7146z"/><path d="m1730.908813 230.924103c5.009766-9.546845 9.660157-19.304383 15.107422-28.594712 10.010132-17.07225 20.235962-34.030273 30.84253-50.737121 11.127929-17.52771 24.146606-33.626289 39.705566-47.448876 4.111572-3.652748 9.34436-6.043304 14.062378-9.013404.596924.494117 1.193726.988243 1.790649 1.48236-2.60791 7.414238-4.788574 15.013718-7.908081 22.20607-7.686279 17.721482-19.625 32.843628-30.432861 48.663712-11.271728 16.498672-25.14856 30.633194-39.504639 44.32222-7.150024 6.817856-14.902099 13.004364-22.834472 19.490967-.578125-.11409-.703369-.242661-.828492-.371216z"/><path d="m1782.283569 279.692535c-2.504638-.745849-4.664428-1.513092-6.710205-2.513794-7.617431-3.726257-9.208496-13.794311-2.783325-19.260223 1.606567-1.366669 4.57666-1.959839 6.678467-1.578094 1.112793.202118 2.277466 3.216095 2.429687 5.043121.503418 6.039917.556519 12.117371.385376 18.30899z"/><path d="m1731.46814 231.506622c-.287598.449677-.758789.7025-1.230103.955353.054566-.431259.109009-.862533.417236-1.415832.378663.006515.503907.135086.812867.460479z"/><path d="m1760.713379 238.466293c-.490479.100495-.813233-.085159-1.135986-.270797.10913-.113541.238281-.336884.32373-.321305.334229.060944.654541.197495.812256.592102z"/><path d="m1754.773193 242.233978c.271241.32341.243042.677384.140869 1.008438-.027709.089859-.279418.11052-.428222.16298-.013306-.383179-.026734-.766343.287353-1.171418z"/><path d="m911.744141 186.41922c4.490539 14.275528 7.625915 28.452286 8.200805 43.032013 1.011719 25.655884-3.757019 50.391327-12.404358 74.493133-6.781555 18.901642-16.400085 36.030915-29.330993 51.496735-19.100586 22.845032-43.596314 36.828247-72.115357 43.162201-14.462463 3.212067-29.679016 4.141327-44.551086 4.114166-18.57013-.033905-36.92041-3.448211-55.373657-8.508087 12.299682-12.50119 23.013-25.716644 32.299438-40.094116 14.267151-22.088898 26.256348-45.356781 36.675415-69.477234 6.121521-14.171509 12.297852-28.327759 18.851868-42.302216 13.132995-28.002212 26.201538-56.044601 39.991333-83.724304 6.226074-12.497192 14.107361-24.170501 21.264099-36.20195.588806-.989853 1.380432-1.85907 2.056091-2.755501 18.388123 8.528984 30.886292 22.443352 40.661438 38.866066 5.220032 8.769822 9.101685 18.336228 13.774964 27.899094z"/><path d="m580.619812 402.912048c6.202332-5.955291 13.432617-8.19757 21.483337-8.992035 15.302124-1.510009 30.082032 1.846131 44.983094 4.196991.567993.0896 1.054199.697998 1.808777 1.225678-10.476197 6.214294-21.598572 10.335693-33.398438 11.460083-10.05188.957855-20.305786.745239-30.395508.015991-6.445862-.465851-6.384887-1.309906-4.481262-7.906708z"/><path d="m1276.973511 343.091125c-10.482056 10.822358-20.323853 21.978577-31.520264 31.550446-9.304809 7.954742-20.886719 12.627655-33.38208 13.2341-12.909302.626496-18.529175-5.639679-19.151245-18.787292-.911987-19.278229 6.349243-36.178009 15.292236-52.327087 10.512696-18.983552 23.831787-36.037446 39.613159-51.048432 2.380616-2.264374 4.958252-4.327576 7.516724-6.394592.607422-.490662 1.505615-.621369 2.542725-1.023316-5.57251 20.441101-3.649903 40.273865 5.300293 59.097596 3.656128 7.689605 9.452758 14.350616 14.084716 21.601593.542969.849853-.131958 2.477722-.296264 4.096984z"/><path d="m1104.779053 265.715027c-4.489991 4.854217-8.733643 9.449737-12.977417 14.045257-.307251-.144744-.614502-.28952-.921753-.434265 1.746704-5.556335 3.011352-11.322632 5.324219-16.632354 9.534301-21.888138 18.653808-44.004792 29.335205-65.331589 10.04895-20.064255 22.371338-38.930283 36.880127-56.179871 9.223754-10.966141 18.379882-22.060455 28.467163-32.201301 5.641845-5.671914 13.10852-9.535241 19.795166-14.152245.741455-.511955 1.760742-.621399 4.289306-1.462227-1.973999 8.24424-3.040893 15.637001-5.531616 22.514168-5.842529 16.132553-14.541748 30.883545-24.038452 45.095993-9.874878 14.778442-19.942749 29.445633-30.447266 43.779709-7.43103 10.14032-15.65039 19.710388-23.662231 29.415802-8.667969 10.50029-17.503784 20.862091-26.512451 31.542923z"/><path d="m1279.227417 316.531525c-3.79834-11.855622-5.802002-23.584381-5.228149-35.684571.452758-9.547821 3.378051-18.290802 9.505493-25.606857 3.208618-3.831116 7.863281-5.199539 13.264282-3.877167 9.440674 26.84874.133179 51.241501-10.507568 77.23848-2.754151-4.698578-4.809571-8.204956-7.034058-12.069885z"/></svg>