<svg fill="none" height="34" viewBox="0 0 155 34" width="155" xmlns="http://www.w3.org/2000/svg" xmlns:xlink="http://www.w3.org/1999/xlink"><clipPath id="a"><path d="m0 0h155v34h-155z"/></clipPath><g clip-path="url(#a)"><g fill="#013b80"><path d="m10.5286 27.2826c-1.67098 0-3.21893-.3091-4.64386-.9273-1.42493-.6181-2.64484-1.4733-3.66997-2.5757-1.02514-1.1024-1.773483-2.38-2.2450434-3.8533l.9226194-.4019c1.547954-.6697 3.372684-.3091 4.469574.9788.3998.474.85086.8861 1.35318 1.2467 1.1994.8654 2.55258 1.2982 4.0595 1.2982 1.507 0 1.5787-.134 2.2041-.4121.6253-.2679 1.1071-.6491 1.4454-1.1231.3383-.4739.5126-1.0406.5126-1.7s-.2256-1.4218-.6869-1.9369c-.4613-.5049-1.1481-.9067-2.0707-1.1849l-5.05395-1.6382c-2.05026-.6388-3.58796-1.5969-4.62335-2.8745-1.03538-1.2776-1.558198-2.78184-1.558198-4.51275s.369048-2.85394 1.117398-4.00788c.73809-1.16424 1.77347-2.0606 3.10615-2.719998 1.33267-.649091 2.84987-.9787876 4.57209-.9787876 1.72226 0 3.02416.2781816 4.34656.8345456 1.3224.55636 2.4603 1.32909 3.4137 2.30788s1.6607 2.13273 2.1323 3.46182l-.8304.37091c-1.5274.6903-3.3522.38121-4.5003-.84485-.2871-.30909-.6049-.57697-.9534-.82424-1.0354-.72122-2.2348-1.08182-3.59821-1.08182-1.36343 0-1.50695.13394-2.12203.41212-.61508.26788-1.08664.64909-1.43518 1.13333-.33829.48424-.51257 1.06121-.51257 1.72061 0 .65939.23578 1.3806.70735 1.93697.47156.55636 1.18915.98904 2.15277 1.29814l4.83867 1.5249c2.0912.6903 3.6699 1.6382 4.7156 2.8436 1.0456 1.2055 1.5684 2.6994 1.5684 4.4715 0 1.7722-.3895 2.854-1.1686 4.0079-.7791 1.1643-1.8453 2.0709-3.2189 2.7303-1.3635.6594-2.9524.9891-4.7669.9891z"/><path d="m21.8359 33.9585v-26.41694h.5331c2.1118 0 3.8135 1.72061 3.8135 3.83274l-.4203-.9582c.6561-1.0406 1.5582-1.85454 2.6858-2.43151 1.1277-.57697 2.4399-.86545 3.916-.86545 1.4762 0 3.4445.45333 4.9104 1.3497 1.4557.89636 2.6244 2.11216 3.4752 3.61636.8611 1.5145 1.2917 3.2145 1.2917 5.1103s-.4203 3.5752-1.2712 5.1103c-.8508 1.5352-1.999 2.7509-3.4649 3.637-1.4557.886-3.1164 1.3291-4.9822 1.3291-1.8657 0-2.6653-.2782-3.834-.8346-1.1686-.5563-2.0912-1.3497-2.7678-2.4006l.7381-.9273v10.8285h-4.6234zm9.9541-10.9418c1.0559 0 1.999-.2473 2.8293-.7418.8201-.4945 1.466-1.1848 1.9273-2.0606s.6868-1.8855.6868-3.0188-.2255-2.1327-.6868-2.9982c-.4613-.8654-1.0969-1.5454-1.9273-2.0606-.8201-.5048-1.7632-.7624-2.8293-.7624-1.0662 0-1.9273.2473-2.7371.7418-.8099.4946-1.4455 1.1849-1.9068 2.0812-.4613.8861-.6868 1.8855-.6868 2.9982s.2255 2.143.6868 3.0188 1.0969 1.5661 1.9068 2.0606c.8098.4945 1.7222.7418 2.7371.7418z"/><path d="m52.9174 27.2826c-1.9785 0-3.711-.4533-5.1974-1.3497-1.4864-.8963-2.6346-2.1224-3.4649-3.6576-.8201-1.5351-1.2405-3.2454-1.2405-5.1103 0-1.8648.4204-3.6575 1.2507-5.1618.8406-1.5042 1.9785-2.68908 3.424-3.56483 1.4454-.87576 3.0651-1.30849 4.8591-1.30849s2.8293.24728 3.9775.74182c1.1379.49455 2.1118 1.18485 2.9114 2.06061.7996.87579 1.4147 1.87519 1.835 2.99819s.6355 2.3388.6355 3.637c0 1.2981-.0205.6697-.0512 1.0303-.0308.3503-.1025.6594-.1948.9272h-14.8337v-3.5545h12.2196l-2.1938 1.6691c.2153-1.0921.1641-2.0606-.1537-2.9158-.3178-.8551-.8406-1.5248-1.5582-2.0194-.7176-.4945-1.589-.7418-2.5936-.7418-1.0047 0-1.8248.2473-2.5833.7315-.7586.4843-1.3225 1.1952-1.712 2.1328-.3896.9375-.5331 2.0606-.4408 3.3897-.0923 1.1848.0615 2.2357.4818 3.1424.41.9066 1.0251 1.6176 1.835 2.1121.8098.4945 1.7529.7418 2.8088.7418s1.958-.2267 2.7064-.6697c.164-.103.3178-.206.4715-.3194 1.0047-.7727 2.3476-.9582 3.4855-.4018l1.5377.7624c-.3793.9273-.9636 1.7412-1.7632 2.4521-.7996.711-1.753 1.2673-2.8397 1.6691-1.0968.4019-2.3065.6079-3.6187.6079z"/><path d="m63.6611 26.8494v-19.30784h1.8965c1.3532 0 2.4501 1.10243 2.4501 2.46244v1.3394l-.3486-.6697c.4511-1.15395 1.179-2.04002 2.2041-2.64789 1.0251-.60788 2.2143-.90667 3.5879-.90667 1.3737 0 2.6654.30909 3.7623.92727 1.0969.61819 1.9477 1.47334 2.5628 2.57579.6151 1.1024.9226 2.3697.9226 3.8121v12.4254h-4.6233v-11.323c0-.8551-.164-1.5867-.4921-2.2048-.328-.6182-.7791-1.0922-1.3634-1.4425-.5741-.34-1.2507-.5151-2.0298-.5151s-1.4249.1751-2.0092.5151c-.5844.34-1.0457.8243-1.3737 1.4425-.328.6181-.4921 1.3497-.4921 2.2048v11.323h-4.6233z"/><path d="m91.77 27.283c-1.8555 0-3.5162-.4431-4.9821-1.3291-1.4557-.8861-2.6141-2.1018-3.465-3.637-.8508-1.5351-1.2711-3.2455-1.2711-5.1103 0-1.8649.4203-3.5958 1.2711-5.1103.8509-1.5146 2.0093-2.72001 3.4752-3.61637 1.4762-.89636 3.1164-1.3497 4.9309-1.3497s2.7576.28849 3.9058.86546c1.1379.57697 2.04 1.39091 2.7063 2.43151l-.7073.9582v-11.39516562h4.6232v26.87026562h-.666c-2.0505 0-3.7112-1.6691-3.7112-3.7297l.4921.9273c-.6561 1.0406-1.5787 1.8443-2.7576 2.4006-1.179.5564-2.4604.8346-3.8545.8346zm.4921-4.2655c1.0559 0 1.9887-.2473 2.7883-.7418.7996-.4946 1.4352-1.1849 1.8863-2.0606.4613-.8758.6868-1.8855.6868-3.0188s-.2255-2.1121-.6868-2.9982c-.4613-.886-1.0867-1.5764-1.8863-2.0812-.7996-.4945-1.7324-.7418-2.7883-.7418s-1.9683.2576-2.7884.7624c-.8201.5049-1.4659 1.1952-1.9272 2.0606-.4613.8655-.6869 1.8649-.6869 2.9982s.2256 2.143.6869 3.0188c.4613.8757 1.0969 1.566 1.9272 2.0606.8201.4945 1.753.7418 2.7884.7418z"/></g><path d="m105.199 26.8502v-26.447856h4.808v11.539356h11.195v-11.539356h4.838v26.447856h-4.838v-10.6533h-11.195v10.6533z" fill="#ed815f"/><path d="m153.996 8.1807c-.666-1.65878-1.599-3.0909-2.799-4.31697-1.199-1.21575-2.603-2.17393-4.213-2.85393-1.609-.680005-3.352-1.0303078-5.228-1.0303078s-3.619.3399998-5.228 1.0096968c-1.61.669701-3.014 1.627881-4.214 2.853941-1.199 1.23636-2.122 2.67879-2.788 4.32727-.656 1.65879-.984 3.4721-.984 5.4297s.338 3.7503 1.005 5.4091c.666 1.6691 1.599 3.1218 2.798 4.3479 1.2 1.2363 2.604 2.1945 4.214 2.8745 1.609.6903 3.341 1.0303 5.197 1.0303 1.855 0 2.337-.1339 3.414-.4121.112-.0309.215-.0618.317-.0927.103-.0309.246-.0722.369-.1134.247-.0824.493-.1648.739-.2575.246-.0928.246-.1031.369-.1546 1.599-.68 2.993-1.6382 4.192-2.8745 1.2-1.2364 2.143-2.6788 2.82-4.3479.676-1.6691 1.014-3.4721 1.014-5.4091s-.338-3.78121-1.004-5.4297zm-4.572 9.1285c-.523 1.463-1.374 2.7818-2.594 3.7812-2.983 2.4315-7.36 2.38-10.271-.1339-2.081-1.8031-3.096-4.6158-3.096-7.3358 0-1.3291.215-2.5448.645-3.67818.698-1.81333 1.897-3.48242 3.578-4.48182 4.008-2.4006 9.124-.6903 11.225 3.3794 1.313 2.5345 1.487 5.78.523 8.4691z" fill="#ed815f"/><path clip-rule="evenodd" d="m151.464 21.2039c-.646-.5667-1.405-1.02-2.163-1.4734-1.364-.8139-2.778-1.6278-4.009-2.6684-1.558-1.3188-2.603-2.0812-2.552-5.234-2.163 2.1946-2.881 5.1-1.681 7.5831.809 1.669 2.275 2.5242 3.721 3.4103 1.599.9787 3.28 1.8442 4.715 3.1115.841.7521 1.589 1.6794 1.999 2.7818.257.6697.38 1.3909.503 2.1018.297-.4739.564-.9376.789-1.463.831-1.9164.954-3.9873.205-5.9861-.348-.917-.881-1.597-1.527-2.1636z" fill="#ed815f" fill-rule="evenodd"/></g></svg>