<svg width="119" height="28" fill="none" xmlns="http://www.w3.org/2000/svg"><g clip-path="url(#a)" fill="#013B80"><path d="m118.772 22.356-1.742-6.693a10.937 10.937 0 0 0 1.029-4.614c0-6-4.851-10.851-10.851-10.851-6 0-10.852 4.851-10.852 10.851 0 6 4.852 10.852 10.852 10.852 1.762 0 3.426-.416 4.891-1.168l6.515 1.802s.158.06.198.02c.02-.06-.04-.199-.04-.199Zm-2.336-11.227-2.832.732a6.482 6.482 0 0 1-1.446 3.327l.713 1.426c.02.04.02.08-.02.119-.039.04-.079.04-.118.02l-1.426-.713A6.426 6.426 0 0 1 108 17.485l-.733 2.832c-.019.04-.059.079-.099.079-.039 0-.079-.04-.099-.08l-.732-2.83a6.491 6.491 0 0 1-3.327-1.446l-1.426.713c-.039.02-.079.02-.119-.02-.039-.04-.039-.08-.019-.12l.712-1.425a6.418 6.418 0 0 1-1.445-3.327l-2.832-.732c-.04-.02-.079-.06-.079-.1 0-.039.04-.079.08-.098l2.831-.733a6.355 6.355 0 0 1 1.445-3.307l-.712-1.426c-.02-.04-.02-.079.019-.118.04-.04.08-.04.119-.02l1.426.713a6.42 6.42 0 0 1 3.327-1.446l.732-2.812c.02-.099.179-.099.198 0L108 4.614a6.492 6.492 0 0 1 3.327 1.445l1.425-.712c.04-.02.08-.02.119.02.04.039.04.079.02.118l-.713 1.426a6.426 6.426 0 0 1 1.446 3.307l2.831.732c.04.02.08.06.08.1-.02.04-.06.079-.099.079Z"/><path d="M107.168 8.436a2.603 2.603 0 0 0-2.594 2.594 2.603 2.603 0 0 0 2.594 2.594 2.603 2.603 0 0 0 2.594-2.594 2.59 2.59 0 0 0-2.594-2.594ZM90.297 8.673h-7.604V.515h-4.277v21.01h4.277V12.97h7.604v8.555h4.277V.515h-4.277v8.158ZM14.891 8.356l3.248-.89V9.9h.059c.99-1.644 2.792-2.396 4.693-2.396 4.218 0 6.753 3.129 6.753 7.168 0 4.04-2.713 7.169-6.595 7.169-2.554 0-3.92-1.188-4.633-2.08h-.08v8.218h-3.445V8.356Zm7.327 2.238c-2.515 0-4.02 1.96-4.02 4.1 0 2.138 1.505 4.098 4.02 4.098 2.495 0 4.02-1.96 4.02-4.099-.02-2.138-1.525-4.099-4.02-4.099ZM34.436 15.881c.218 2.02 1.762 3.248 3.663 3.248 1.703 0 2.812-.792 3.663-1.842l2.456 1.842c-1.604 1.96-3.604 2.732-5.782 2.732-4.12 0-7.426-2.87-7.426-7.168 0-4.297 3.307-7.168 7.426-7.168 3.822 0 6.396 2.673 6.396 7.425v.931H34.436Zm6.99-2.554c-.02-2-1.347-3.248-3.466-3.248-2.02 0-3.267 1.287-3.524 3.248h6.99ZM46.713 8.356l3.247-.831v2.534h.06c.633-1.366 1.9-2.534 4.178-2.534 3.663 0 4.99 2.594 4.99 5.386v8.614h-3.406v-6.93c0-1.506-.119-4.02-2.495-4.02-2.257 0-3.129 1.643-3.129 3.465v7.465h-3.406V8.356h-.04ZM72.436 19.465h-.06c-.99 1.644-2.792 2.396-4.693 2.396-4.218 0-6.752-3.128-6.752-7.168s2.693-7.168 6.594-7.168c2.554 0 3.92 1.188 4.633 2.079h.08V.891L75.683 0v21.525h-3.247v-2.06Zm-4.06-.673c2.495 0 4.02-1.96 4.02-4.099 0-2.138-1.505-4.099-4.02-4.099-2.495 0-4.02 1.96-4.02 4.1 0 2.118 1.505 4.098 4.02 4.098ZM11.327 10.851c-1.11-1.01-2.297-1.326-3.545-1.683-.158-.04-.317-.099-.495-.138-2.158-.594-3.485-1.09-3.485-2.911 0-1.584 1.267-2.852 2.812-2.852 1.683 0 2.91 1.169 3.01 2.891l.04.575S12.89 5.98 12.89 5.9a5.857 5.857 0 0 0-1.683-3.96C10.059.792 8.515.158 6.85.158 3.287.158.614 2.713.614 6.1c0 1.644.673 3.129 1.881 4.158 1.09.931 2.396 1.288 3.683 1.624l.04.02c1.089.277 2.02.535 2.832 1.188.712.574 1.148 1.466 1.148 2.356 0 1.882-1.505 3.308-3.505 3.308-1.842 0-3.327-1.506-3.366-3.406l-.02-.595S0 15.564 0 15.644c.06 1.623.693 3.128 1.802 4.237 1.267 1.287 3.03 1.98 4.93 1.98 3.664 0 6.634-2.87 6.634-6.396.02-1.782-.752-3.505-2.04-4.614Z"/></g><defs><clipPath id="a"><path fill="#fff" d="M0 0h118.812v28H0z"/></clipPath></defs></svg>