<svg fill="none" height="23" viewBox="0 0 174 23" width="174" xmlns="http://www.w3.org/2000/svg" xmlns:xlink="http://www.w3.org/1999/xlink"><clipPath id="a"><path d="m0 .5h173.173v22h-173.173z"/></clipPath><g clip-path="url(#a)"><path d="m5.94726 1.15987c-1.93004 1.67156-3.78104 3.43177-5.541787 5.28011-.4865148.51054-.541521 1.30253-.130841 1.8761 3.342058 4.66382 7.178098 8.94952 11.430668 12.78182.5581.5031 1.4147.5031 1.9728 0 4.2515-3.8318 8.0844-8.1175 11.4248-12.78022.4107-.57356.3557-1.36502-.1308-1.87557-1.7608-1.84833-3.6118-3.60908-5.5418-5.28117-.2435-.210951-.5501-.338588-.8716-.362086-1.9385-.14259-3.8958-.216823-5.8713-.216823-1.9754 0-3.93106.074767-5.86911.216823-.3215.023498-.6275.151135-.87156.362086z" fill="#f84a58"/><g fill="#25355d"><path d="m48.4018 22.5002c-1.6449 0-3.2604-.3129-4.8465-.9399-1.5861-.6264-2.996-1.498-4.2296-2.6142l2.4379-3.0841c1.1941 1.0574 2.345 1.8259 3.451 2.3055 1.106.4801 2.2761.7199 3.5097.7199.8615 0 1.6054-.1031 2.2324-.3081.6264-.2056 1.1113-.5042 1.4542-.8962.3423-.3914.5137-.8518.5137-1.3805 0-.7049-.2547-1.2528-.7637-1.6448-.5095-.3915-1.3805-.6852-2.6141-.8812l-4.0828-.705c-1.7431-.3129-3.0745-.9351-3.9947-1.8654-.9207-.9297-1.3805-2.13936-1.3805-3.62721 0-1.27263.3327-2.37437.9987-3.30467.6654-.92978 1.6011-1.64486 2.8053-2.14419 1.2043-.49934 2.6388-.74927 4.3028-.74927 1.4879 0 2.9912.24993 4.509.74927 1.5172.49933 2.8443 1.20907 3.9797 2.12977l-2.2911 3.14286c-2.1543-1.64486-4.3177-2.46729-6.4913-2.46729-.7637 0-1.4296.09826-1.9973.29372-.5682.196-1.0035.46515-1.3074.80748-.3038.34285-.455.73912-.455 1.18932 0 .66595.2302 1.16528.69 1.49799.4598.33325 1.2091.5976 2.2473.79306l3.8772.61686c2.056.3332 3.5984.9837 4.6259 1.953s1.5423 2.2472 1.5423 3.8328c0 1.3319-.3573 2.4871-1.0719 3.466-.715.9794-1.7233 1.7431-3.0253 2.291-1.3026.548-2.8443.8225-4.6259.8225z"/><path d="m64.7437 22.4411c-1.6844 0-2.9618-.3867-3.8328-1.1605-.8716-.7733-1.3074-1.8943-1.3074-3.3629v-14.92122l3.9947-.91054v4.81709h4.4059v3.34847h-4.4059v6.8144c0 .705.1618 1.2091.4849 1.513.3231.3038.8667.455 1.6299.455.4112 0 .7786-.0246 1.1012-.0737.3231-.0486.6804-.1325 1.0724-.25v3.2898c-.4113.1372-.9207.2445-1.5274.3231-.6072.0779-1.1455.1174-1.6155.1174z"/><path d="m75.787 22.5011c-1.1749 0-2.2174-.2596-3.1279-.7786-.9106-.5186-1.6203-1.2433-2.1298-2.1736-.5095-.9298-.7637-1.9824-.7637-3.1573v-9.4873h3.9947v8.8999c0 .9986.2889 1.7869.8667 2.3642.5773.5778 1.356.8667 2.3349.8667.6654 0 1.2678-.1367 1.8067-.4112.5383-.2739.9837-.6462 1.3361-1.1161v-10.6035h4.0241v15.3031h-4.0241v-1.2337c-1.1749 1.0184-2.6141 1.5274-4.3177 1.5274z"/><path d="m94.2329 22.4126c-1.4494 0-2.761-.3524-3.9359-1.0574-1.1749-.7049-2.11-1.6496-2.8048-2.8342-.6954-1.1845-1.0425-2.511-1.0425-3.9797 0-1.4686.3477-2.7706 1.0425-3.9653.6948-1.19408 1.64-2.13934 2.8347-2.83467 1.1941-.69479 2.5356-1.04246 4.024-1.04246.7637 0 1.4932.10254 2.188.30815s1.3559.50414 1.9824.89559v-6.25634l4.0237-.675567v21.236297h-3.965v-1.263c-1.2534.9794-2.7023 1.4686-4.3471 1.4686zm.6462-3.4366c.7241 0 1.3997-.1271 2.0267-.3818.6264-.2542 1.1647-.6168 1.6155-1.0868v-5.9626c-.4508-.4502-.9891-.7979-1.6155-1.0425-.627-.2445-1.3026-.3674-2.0267-.3674-.8422 0-1.6011.1907-2.2761.5725-.6756.3819-1.2091.9058-1.6011 1.5717-.392.666-.5874 1.4099-.5874 2.2323 0 .8225.2008 1.6257.6018 2.2911.4011.6659.9351 1.1946 1.6011 1.5861.6654.392 1.4195.5874 2.2617.5874z"/><path d="m107.568 5.08264c-.627 0-1.165-.22483-1.616-.67556-.45-.4502-.675-.99867-.675-1.64486 0-.6462.225-1.16048.675-1.60107.451-.440589.989-.66115 1.616-.66115s1.189.220027 1.63.66115c.44.44112.661.9741.661 1.60107 0 .62696-.22 1.19466-.661 1.64486-.441.45073-.984.67556-1.63.67556zm-1.997 17.12416v-15.30306h4.024v15.30306z"/><path d="m120.08 22.5012c-1.527 0-2.908-.3524-4.141-1.0574-1.234-.7049-2.214-1.6598-2.938-2.8635-.724-1.2043-1.086-2.541-1.086-4.0096 0-1.4687.362-2.8347 1.086-4.0385.724-1.20426 1.704-2.15379 2.938-2.84912 1.233-.69479 2.614-1.04246 4.141-1.04246s2.908.34767 4.142 1.04246c1.233.69533 2.212 1.64486 2.937 2.84912.724 1.2043 1.087 2.5506 1.087 4.0385 0 1.4878-.358 2.8048-1.072 4.0096-.715 1.2042-1.689 2.1586-2.923 2.8635-1.234.705-2.624 1.0574-4.171 1.0574zm0-3.4953c.803 0 1.527-.2008 2.174-.6019.646-.401 1.155-.9351 1.527-1.601.372-.6654.558-1.4195.558-2.2617s-.191-1.5664-.573-2.2323c-.382-.6654-.891-1.1941-1.527-1.5861-.637-.3915-1.347-.5875-2.13-.5875-.784 0-1.527.196-2.174.5875-.646.392-1.155.9207-1.527 1.5861-.372.6659-.558 1.4099-.558 2.2323s.186 1.5963.558 2.2617c.372.6659.876 1.1994 1.513 1.601.636.4016 1.356.6019 2.159.6019z"/><path d="m136.112 22.2073v-19.56472h4.053v7.85362h8.999v-7.85362h4.053v19.56472h-4.053v-7.9936h-8.999v7.9936z"/><path d="m156.655 22.2073v-19.56472h9.195c1.323 0 2.478.22376 3.466.67076.987.447 1.761 1.0761 2.32 1.88678s.838 1.74686.838 2.80908c0 .87583-.214 1.66302-.643 2.3615-.429.6986-1.034 1.2903-1.817 1.7747.969.4101 1.738 1.0019 2.306 1.7746.569.7733.853 1.6449.853 2.6131 0 1.137-.289 2.1292-.866 2.9768-.578.848-1.384 1.5092-2.418 1.9845s-2.232.7129-3.591.7129zm4.052-11.5434h4.891c.876 0 1.566-.2141 2.069-.643.503-.42826.754-.99648.754-1.70516s-.251-1.27156-.754-1.69079c-.503-.41922-1.193-.6291-2.069-.6291h-4.891v4.66755zm0 8.1896h5.282c.95 0 1.7-.228 2.25-.6846s.825-1.0665.825-1.8307-.275-1.3789-.825-1.8446-1.3-.6986-2.25-.6986h-5.282v5.0591z"/></g></g></svg>