<svg width="174" height="23" viewBox="0 0 174 23" fill="none" xmlns="http://www.w3.org/2000/svg">
<g clip-path="url(#clip0_11234_17981)">
<path d="M5.94726 1.15987C4.01722 2.83143 2.16622 4.59164 0.405473 6.43998C-0.0810418 6.95052 -0.136048 7.74251 0.274632 8.31608C3.61669 12.9799 7.45273 17.2656 11.7053 21.0979C12.2634 21.601 13.12 21.601 13.6781 21.0979C17.9296 17.2661 21.7625 12.9804 25.1029 8.31768C25.5136 7.74412 25.4586 6.95266 24.9721 6.44211C23.2113 4.59378 21.3603 2.83303 19.4303 1.16094C19.1868 0.949989 18.8802 0.822352 18.5587 0.798854C16.6202 0.656264 14.6629 0.582031 12.6874 0.582031C10.712 0.582031 8.75634 0.656798 6.81829 0.798854C6.49679 0.822352 6.19079 0.949989 5.94673 1.16094L5.94726 1.15987Z" fill="#F84A58"/>
<path d="M48.4018 22.5002C46.7569 22.5002 45.1414 22.1873 43.5553 21.5603C41.9692 20.9339 40.5593 20.0623 39.3257 18.9461L41.7636 15.862C42.9577 16.9194 44.1086 17.6879 45.2146 18.1675C46.3206 18.6476 47.4907 18.8874 48.7243 18.8874C49.5858 18.8874 50.3297 18.7843 50.9567 18.5793C51.5831 18.3737 52.068 18.0751 52.4109 17.6831C52.7532 17.2917 52.9246 16.8313 52.9246 16.3026C52.9246 15.5977 52.6699 15.0498 52.1609 14.6578C51.6514 14.2663 50.7804 13.9726 49.5468 13.7766L45.464 13.0716C43.7209 12.7587 42.3895 12.1365 41.4693 11.2062C40.5486 10.2765 40.0888 9.06684 40.0888 7.57899C40.0888 6.30636 40.4215 5.20462 41.0875 4.27432C41.7529 3.34454 42.6886 2.62946 43.8928 2.13013C45.0971 1.63079 46.5316 1.38086 48.1956 1.38086C49.6835 1.38086 51.1868 1.63079 52.7046 2.13013C54.2218 2.62946 55.5489 3.3392 56.6843 4.2599L54.3932 7.40276C52.2389 5.7579 50.0755 4.93547 47.9019 4.93547C47.1382 4.93547 46.4723 5.03373 45.9046 5.22919C45.3364 5.42519 44.9011 5.69434 44.5972 6.03667C44.2934 6.37952 44.1422 6.77579 44.1422 7.22599C44.1422 7.89194 44.3724 8.39127 44.8322 8.72398C45.292 9.05723 46.0413 9.32158 47.0795 9.51704L50.9567 10.1339C53.0127 10.4671 54.5551 11.1176 55.5826 12.0869C56.6101 13.0562 57.1249 14.3341 57.1249 15.9197C57.1249 17.2516 56.7676 18.4068 56.053 19.3857C55.338 20.3651 54.3297 21.1288 53.0277 21.6767C51.7251 22.2247 50.1834 22.4992 48.4018 22.4992V22.5002Z" fill="#25355D"/>
<path d="M64.7437 22.4411C63.0593 22.4411 61.7819 22.0544 60.9109 21.2806C60.0393 20.5073 59.6035 19.3863 59.6035 17.9177V2.99648L63.5982 2.08594V6.90303H68.0041V10.2515H63.5982V17.0659C63.5982 17.7709 63.76 18.275 64.0831 18.5789C64.4062 18.8827 64.9498 19.0339 65.713 19.0339C66.1242 19.0339 66.4916 19.0093 66.8142 18.9602C67.1373 18.9116 67.4946 18.8277 67.8866 18.7102V22C67.4753 22.1372 66.9659 22.2445 66.3592 22.3231C65.752 22.401 65.2137 22.4405 64.7437 22.4405V22.4411Z" fill="#25355D"/>
<path d="M75.787 22.5011C74.6121 22.5011 73.5696 22.2415 72.6591 21.7225C71.7485 21.2039 71.0388 20.4792 70.5293 19.5489C70.0198 18.6191 69.7656 17.5665 69.7656 16.3916V6.9043H73.7603V15.8042C73.7603 16.8028 74.0492 17.5911 74.627 18.1684C75.2043 18.7462 75.983 19.0351 76.9619 19.0351C77.6273 19.0351 78.2297 18.8984 78.7686 18.6239C79.3069 18.35 79.7523 17.9777 80.1047 17.5078V6.9043H84.1288V22.2074H80.1047V20.9737C78.9298 21.9921 77.4906 22.5011 75.787 22.5011Z" fill="#25355D"/>
<path d="M94.2329 22.4126C92.7835 22.4126 91.4719 22.0602 90.297 21.3552C89.1221 20.6503 88.187 19.7056 87.4922 18.521C86.7968 17.3365 86.4497 16.01 86.4497 14.5413C86.4497 13.0727 86.7974 11.7707 87.4922 10.576C88.187 9.38192 89.1322 8.43666 90.3269 7.74133C91.521 7.04654 92.8625 6.69887 94.3509 6.69887C95.1146 6.69887 95.8441 6.80141 96.5389 7.00702C97.2337 7.21263 97.8948 7.51116 98.5213 7.90261V1.64627L102.545 0.970703V22.207H98.58V20.944C97.3266 21.9234 95.8777 22.4126 94.2329 22.4126ZM94.8791 18.976C95.6032 18.976 96.2788 18.8489 96.9058 18.5942C97.5322 18.34 98.0705 17.9774 98.5213 17.5074V11.5448C98.0705 11.0946 97.5322 10.7469 96.9058 10.5023C96.2788 10.2578 95.6032 10.1349 94.8791 10.1349C94.0369 10.1349 93.278 10.3256 92.603 10.7074C91.9274 11.0893 91.3939 11.6132 91.0019 12.2791C90.6099 12.9451 90.4145 13.689 90.4145 14.5114C90.4145 15.3339 90.6153 16.1371 91.0163 16.8025C91.4174 17.4684 91.9514 17.9971 92.6174 18.3886C93.2828 18.7806 94.0369 18.976 94.8791 18.976Z" fill="#25355D"/>
<path d="M107.568 5.08264C106.941 5.08264 106.403 4.85781 105.952 4.40708C105.502 3.95688 105.277 3.40841 105.277 2.76222C105.277 2.11602 105.502 1.60174 105.952 1.16115C106.403 0.720561 106.941 0.5 107.568 0.5C108.195 0.5 108.757 0.720027 109.198 1.16115C109.638 1.60227 109.859 2.13525 109.859 2.76222C109.859 3.38918 109.639 3.95688 109.198 4.40708C108.757 4.85781 108.214 5.08264 107.568 5.08264ZM105.571 22.2068V6.90374H109.595V22.2068H105.571Z" fill="#25355D"/>
<path d="M120.08 22.5012C118.553 22.5012 117.172 22.1488 115.939 21.4438C114.705 20.7389 113.725 19.784 113.001 18.5803C112.277 17.376 111.915 16.0393 111.915 14.5707C111.915 13.102 112.277 11.736 113.001 10.5322C113.725 9.32794 114.705 8.37841 115.939 7.68308C117.172 6.98829 118.553 6.64062 120.08 6.64062C121.607 6.64062 122.988 6.98829 124.222 7.68308C125.455 8.37841 126.434 9.32794 127.159 10.5322C127.883 11.7365 128.246 13.0828 128.246 14.5707C128.246 16.0585 127.888 17.3755 127.174 18.5803C126.459 19.7845 125.485 20.7389 124.251 21.4438C123.017 22.1488 121.627 22.5012 120.08 22.5012ZM120.08 19.0059C120.883 19.0059 121.607 18.8051 122.254 18.404C122.9 18.003 123.409 17.4689 123.781 16.803C124.153 16.1376 124.339 15.3835 124.339 14.5413C124.339 13.6991 124.148 12.9749 123.766 12.309C123.384 11.6436 122.875 11.1149 122.239 10.7229C121.602 10.3314 120.892 10.1354 120.109 10.1354C119.325 10.1354 118.582 10.3314 117.935 10.7229C117.289 11.1149 116.78 11.6436 116.408 12.309C116.036 12.9749 115.85 13.7189 115.85 14.5413C115.85 15.3637 116.036 16.1376 116.408 16.803C116.78 17.4689 117.284 18.0024 117.921 18.404C118.557 18.8056 119.277 19.0059 120.08 19.0059H120.08Z" fill="#25355D"/>
<path d="M136.112 22.2073V2.64258H140.165V10.4962H149.164V2.64258H153.217V22.2073H149.164V14.2137H140.165V22.2073H136.112Z" fill="#25355D"/>
<path d="M156.655 22.2073V2.64258H165.85C167.173 2.64258 168.328 2.86634 169.316 3.31334C170.303 3.76034 171.077 4.38944 171.636 5.20012C172.195 6.0108 172.474 6.94698 172.474 8.0092C172.474 8.88503 172.26 9.67222 171.831 10.3707C171.402 11.0693 170.797 11.661 170.014 12.1454C170.983 12.5555 171.752 13.1473 172.32 13.92C172.889 14.6933 173.173 15.5649 173.173 16.5331C173.173 17.6701 172.884 18.6623 172.307 19.5099C171.729 20.3579 170.923 21.0191 169.889 21.4944C168.855 21.9697 167.657 22.2073 166.298 22.2073H156.655ZM160.707 10.6639H165.598C166.474 10.6639 167.164 10.4498 167.667 10.0209C168.17 9.59264 168.421 9.02442 168.421 8.31574C168.421 7.60706 168.17 7.04418 167.667 6.62495C167.164 6.20573 166.474 5.99585 165.598 5.99585H160.707V10.6634V10.6639ZM160.707 18.8535H165.989C166.939 18.8535 167.689 18.6255 168.239 18.1689C168.789 17.7123 169.064 17.1024 169.064 16.3382C169.064 15.574 168.789 14.9593 168.239 14.4936C167.689 14.0279 166.939 13.795 165.989 13.795H160.707V18.8541V18.8535Z" fill="#25355D"/>
</g>
<defs>
<clipPath id="clip0_11234_17981">
<rect width="173.173" height="22" fill="white" transform="translate(0 0.5)"/>
</clipPath>
</defs>
</svg>