<svg viewBox="0 0 624.76 153.66" xmlns="http://www.w3.org/2000/svg"><path d="m414 421.18c-15.64 0-29.22-6.18-29.22-21.43 0-14.89 12-20.28 27.79-23 19.38-3.29 33.74-10.27 44.22-20.45 1.64 38.86-9.47 64.84-42.79 64.84m-13-110.09c15.63 0 29.21 6.17 29.21 21.43 0 14.89-12 20.27-27.79 23-19.38 3.28-33.74 10.27-44.21 20.45-1.65-38.86 9.46-64.84 42.79-64.84m81.19 45.48v-67.69h-87.3c-17.93 0-32.49 6.56-43.28 17.82-13.95 14.55-20 36.79-18.7 68v67.86h87.21c17.93 0 32.49-6.77 43.28-18 14-14.56 20.1-36.8 18.78-68" fill="#0064a6" transform="translate(-332.73 -288.88)"/><g fill="#474646"><path d="m556.63 329.86c7 0 11.14-4.2 11.14-9.68v-.18c0-6.3-4.38-9.68-11.41-9.68h-10.88v19.55zm-25.21-32.24h26.12c15.26 0 24.48 9 24.48 22.1v.18c0 14.8-11.51 22.47-25.85 22.47h-10.69v19.18h-14.06z" transform="translate(-332.73 -288.88)"/><path d="m256.04 8.74h48.23v12.51h-34.25v12.97h30.14v12.52h-30.14v13.42h34.71v12.52h-48.69z"/><path d="m678.29 328.67c6.85 0 10.78-3.65 10.78-9v-.18c0-6-4.21-9.14-11.06-9.14h-14.01v18.36zm-28.29-31.05h29.2c8.13 0 14.43 2.28 18.63 6.48 3.57 3.56 5.48 8.59 5.48 14.62v.18c0 10.32-5.57 16.81-13.7 19.82l15.62 22.83h-16.44l-13.7-20.46h-11.09v20.46h-14z" transform="translate(-332.73 -288.88)"/><path d="m546.22 408.53-8.5-20.73-8.49 20.73zm-14.8-37.63h13l27.4 64.4h-14.7l-5.88-14.3h-27l-5.85 14.35h-14.39z" transform="translate(-332.73 -288.88)"/><path d="m245.27 82.48h12.97l29.96 39.37v-39.37h13.88v63.94h-11.97l-30.96-40.65v40.65h-13.88z"/><path d="m647.32 403.51v-.18c0-18.18 14.16-33.07 33.53-33.07 11.5 0 18.45 3.1 25.11 8.77l-8.86 10.68c-4.93-4.1-9.31-6.48-16.71-6.48-10.23 0-18.36 9-18.36 19.91v.19c0 11.69 8 20.27 19.36 20.27a22.52 22.52 0 0 0 13.25-3.83v-9.14h-14.16v-12.15h27.77v27.77a41.52 41.52 0 0 1 -27.31 10.14c-19.92 0-33.62-14-33.62-32.88" transform="translate(-332.73 -288.88)"/><path d="m720.76 407.89v-36.53h14.06v36.17c0 10.41 5.21 15.8 13.8 15.8s13.79-5.21 13.79-15.35v-36.62h14.06v36.08c0 19.36-10.87 28.86-28 28.86s-27.67-9.59-27.67-28.41" transform="translate(-332.73 -288.88)"/><path d="m786.43 426 8.31-10c5.75 4.75 11.78 7.77 19.09 7.77 5.75 0 9.22-2.29 9.22-6v-.19c0-3.56-2.19-5.38-12.88-8.12-12.88-3.3-21.17-6.87-21.17-19.56v-.18c0-11.6 9.32-19.28 22.38-19.28a37.06 37.06 0 0 1 23.75 8.13l-7.31 10.6c-5.66-3.93-11.23-6.3-16.62-6.3s-8.22 2.46-8.22 5.57v.18c0 4.2 2.74 5.57 13.79 8.4 13 3.38 20.28 8 20.28 19.18v.19c0 12.69-9.68 19.82-23.48 19.82a40.67 40.67 0 0 1 -27.14-10.21" transform="translate(-332.73 -288.88)"/><path d="m528.22 95.45h-19.45v-12.97h52.97v12.97h-19.45v50.97h-14.07z"/><path d="m931.92 408.53-8.49-20.73-8.5 20.73zm-14.79-37.63h13l27.4 64.4h-14.74l-5.79-14.3h-27l-5.84 14.35h-14.43z" transform="translate(-332.73 -288.88)"/></g></svg>