<svg fill="none" height="42" viewBox="0 0 52 42" width="52" xmlns="http://www.w3.org/2000/svg" xmlns:xlink="http://www.w3.org/1999/xlink"><linearGradient id="a" gradientUnits="userSpaceOnUse" x1="133.5" x2="133.5" y1="-8.93433" y2="51.0657"><stop offset="0" stop-color="#d0cefd"/><stop offset="1" stop-color="#ffd99c"/></linearGradient><path d="m3.96875 1.53442 8.75005 6.79688c3.5156-2.65625 7.8906-4.76563 13.2812-4.76563 6.25 0 11.3281 2.89063 15 6.32813 3.6719 3.3594 6.0938 7.4219 7.2656 10.2344.2344.625.2344 1.3281 0 1.9531-1.0156 2.5-3.125 6.0937-6.25 9.2187l8.2032 6.4844c.8593.625 1.0156 1.7969.3124 2.5781-.625.8594-1.7968 1.0157-2.5781.3125l-46.24998-36.24995c-.85937-.625-1.01562-1.79688-.3125-2.57813.625-.859371 1.79688-1.015621 2.57813-.3125zm14.45315 11.24998 7.0312 5.5469c.3125-.7031.5469-1.4063.5469-2.2656 0-.8594-.3125-1.7188-.7031-2.4219.2343 0 .4687-.0781.7031-.0781 4.1406 0 7.5 3.3593 7.5 7.5 0 1.0937-.2344 2.1093-.625 3.0468l2.9688 2.3438c.8593-1.5625 1.4062-3.4375 1.4062-5.3906 0-6.1719-5.0781-11.25003-11.25-11.25003-2.9688 0-5.625 1.17183-7.5781 2.96873zm17.4219 23.2813c-2.8907 1.5625-6.1719 2.5-9.8438 2.5-6.3281 0-11.4062-2.8125-15.0781-6.25s-6.09378-7.5-7.26565-10.2344c-.23437-.625-.23437-1.3281 0-1.9531.78125-1.7969 2.03125-4.0625 3.82813-6.4063l7.34372 5.7813c-.0781.5468-.0781 1.0937-.0781 1.5625 0 6.25 5 11.25 11.25 11.25 1.4062 0 2.8125-.2344 4.1406-.7813z" fill="url(#a)"/></svg>