<svg fill="none" height="36" viewBox="0 0 35 36" width="35" xmlns="http://www.w3.org/2000/svg" xmlns:xlink="http://www.w3.org/1999/xlink"><linearGradient id="a" gradientUnits="userSpaceOnUse" x1="132.5" x2="132.5" y1="-11.9343" y2="48.0657"><stop offset="0" stop-color="#d0cefd"/><stop offset="1" stop-color="#ffd99c"/></linearGradient><path d="m5 .565674h25c2.7344 0 5 2.265626 5 4.999996v25.00003c0 2.8125-2.2656 5-5 5h-25c-2.8125 0-5-2.1875-5-5v-25.00003c0-2.73437 2.1875-4.999996 5-4.999996zm5.7031 10.468726v.0781c-.3125.9375.1563 2.0313 1.1719 2.4219.9375.3125 2.0312-.1562 2.3438-1.1719l.0781-.0781c.0781-.2344.3125-.3906.5469-.3906h4.5312c.7031 0 1.25.4687 1.25 1.1719 0 .3906-.2344.7812-.625 1.0156l-3.4375 1.9531c-.625.3125-.9375.9375-.9375 1.6406v1.0157c0 1.0937.7812 1.875 1.875 1.875 1.0156 0 1.7969-.7813 1.875-1.7969l2.5-1.4844c1.4844-.8594 2.5-2.5 2.5-4.2187 0-2.7344-2.2656-5.00003-5-5.00003h-4.5312c-1.875 0-3.5157 1.17188-4.1407 2.96873zm9.2969 14.5313c0-1.3282-1.1719-2.5-2.5-2.5-1.4062 0-2.5 1.1718-2.5 2.5 0 1.4062 1.0938 2.5 2.5 2.5 1.3281 0 2.5-1.0938 2.5-2.5z" fill="url(#a)"/></svg>