<svg fill="none" height="41" viewBox="0 0 41 41" width="41" xmlns="http://www.w3.org/2000/svg" xmlns:xlink="http://www.w3.org/1999/xlink"><linearGradient id="a" gradientUnits="userSpaceOnUse" x1="133.5" x2="133.5" y1="-9.93433" y2="50.0657"><stop offset="0" stop-color="#d0cefd"/><stop offset="1" stop-color="#ffd99c"/></linearGradient><path d="m26.3906 12.0188-1.0156-3.82813-3.8281-1.01562c-.3125-.15625-.5469-.46875-.5469-.85938 0-.3125.2344-.625.5469-.78125l3.8281-1.09375 1.0156-3.749996c.1563-.3125.4688-.6250002.8594-.6250002.3125 0 .625.3125002.7812.6250002l1.0938 3.749996 3.75 1.09375c.3125.15625.625.46875.625.78125 0 .39063-.3125.70313-.625.85938l-3.75 1.01562-1.0938 3.82813c-.1562.3125-.4687.5469-.7812.5469-.3906 0-.7031-.2344-.8594-.5469zm-8.75.3906 3.5938 7.3438 8.125 1.1718c1.4844.2344 2.1094 2.1094 1.0156 3.2032l-5.8594 5.7031 1.4063 8.0469c.2343 1.5625-1.3281 2.7343-2.7344 2.0312l-7.2656-3.8281-7.18752 3.8281c-1.40626.7031-2.96876-.4687-2.73438-2.0312l1.40625-8.0469-5.85937-5.7031c-1.093755-1.0938-.54688-2.9688 1.01562-3.2032l8.125-1.1718 3.5937-7.3438c.7032-1.4062 2.6563-1.4062 3.3594 0zm16.7969 6.7188-2.9687-.8594c-.3126-.0781-.4688-.3906-.4688-.7031 0-.2344.1562-.5469.4688-.625l2.9687-.8594.8594-2.9688c.0781-.3125.3906-.5468.7031-.5468.2344 0 .5469.2343.625.5468l.8594 2.9688 2.9687.8594c.3125.0781.5469.3906.5469.625 0 .3125-.2344.625-.5469.7031l-2.9687.8594-.8594 2.9687c-.0781.3125-.3906.4688-.625.4688-.3125 0-.625-.1563-.7031-.4688z" fill="url(#a)"/></svg>