<svg fill="none" height="41" viewBox="0 0 40 41" width="40" xmlns="http://www.w3.org/2000/svg" xmlns:xlink="http://www.w3.org/1999/xlink"><linearGradient id="a" gradientUnits="userSpaceOnUse" x1="132.5" x2="132.5" y1="-9.93433" y2="50.0657"><stop offset="0" stop-color="#d0cefd"/><stop offset="1" stop-color="#ffd99c"/></linearGradient><path d="m17.5.0656738h17.5c2.7344 0 5 2.2656262 5 4.9999962v17.50003c0 2.8125-2.2656 5-5 5h-17.5c-2.8125 0-5-2.1875-5-5v-17.50003c0-2.73437 2.1875-4.9999962 5-4.9999962zm-12.5 12.5000262h5v5h-5v17.5h17.5v-5h5v5c0 2.8125-2.2656 5-5 5h-17.5c-2.8125 0-5-2.1875-5-5v-17.5c0-2.7344 2.1875-5 5-5z" fill="url(#a)"/></svg>