<svg fill="none" height="36" viewBox="0 0 36 36" width="36" xmlns="http://www.w3.org/2000/svg" xmlns:xlink="http://www.w3.org/1999/xlink"><linearGradient id="a" gradientUnits="userSpaceOnUse" x1="130.5" x2="130.5" y1="-11.9343" y2="48.0657"><stop offset="0" stop-color="#d0cefd"/><stop offset="1" stop-color="#ffd99c"/></linearGradient><path d="m27.2188 4.86255-12.5 12.49995c-.9376 1.0157-2.5782 1.0157-3.5157 0l-6.24998-6.25c-1.01562-.9375-1.01562-2.57808 0-3.51558.9375-1.01562 2.57813-1.01562 3.51563 0l4.53125 4.45308 10.7031-10.70308c.9375-1.015621 2.5781-1.015621 3.5157 0 1.0156.9375 1.0156 2.57813 0 3.51563zm7.5 9.99995-20 20c-.9376 1.0157-2.5782 1.0157-3.5157 0l-9.99998-10c-1.01562-.9375-1.01562-2.5781 0-3.5156.9375-1.0156 2.57813-1.0156 3.51563 0l8.28125 8.2031 18.2031-18.2031c.9375-1.0156 2.5781-1.0156 3.5157 0 1.0156.9375 1.0156 2.5781 0 3.5156z" fill="url(#a)"/></svg>