<svg fill="none" height="41" viewBox="0 0 30 41" width="30" xmlns="http://www.w3.org/2000/svg" xmlns:xlink="http://www.w3.org/1999/xlink"><linearGradient id="a" gradientUnits="userSpaceOnUse" x1="132.5" x2="132.5" y1="-9.93433" y2="50.0657"><stop offset="0" stop-color="#d0cefd"/><stop offset="1" stop-color="#ffd99c"/></linearGradient><path d="m5 .0656738h20c2.7344 0 5 2.2656262 5 4.9999962v30.00003c0 2.8125-2.2656 5-5 5h-20c-2.8125 0-5-2.1875-5-5v-30.00003c0-2.73437 2.1875-4.9999962 5-4.9999962zm2.5 4.9999962c-1.40625 0-2.5 1.17188-2.5 2.5v2.50003c0 1.4062 1.09375 2.5 2.5 2.5h15c1.3281 0 2.5-1.0938 2.5-2.5v-2.50003c0-1.32812-1.1719-2.5-2.5-2.5zm-2.5 12.50003c0 1.4062 1.09375 2.5 2.5 2.5 1.32812 0 2.5-1.0938 2.5-2.5 0-1.3282-1.17188-2.5-2.5-2.5-1.40625 0-2.5 1.1718-2.5 2.5zm2.5 5c-1.40625 0-2.5 1.1718-2.5 2.5 0 1.4062 1.09375 2.5 2.5 2.5 1.32812 0 2.5-1.0938 2.5-2.5 0-1.3282-1.17188-2.5-2.5-2.5zm-2.5 10c0 1.4062 1.09375 2.5 2.5 2.5h7.5c1.3281 0 2.5-1.0938 2.5-2.5 0-1.3282-1.1719-2.5-2.5-2.5h-7.5c-1.40625 0-2.5 1.1718-2.5 2.5zm10-17.5c-1.4062 0-2.5 1.1718-2.5 2.5 0 1.4062 1.0938 2.5 2.5 2.5 1.3281 0 2.5-1.0938 2.5-2.5 0-1.3282-1.1719-2.5-2.5-2.5zm-2.5 10c0 1.4062 1.0938 2.5 2.5 2.5 1.3281 0 2.5-1.0938 2.5-2.5 0-1.3282-1.1719-2.5-2.5-2.5-1.4062 0-2.5 1.1718-2.5 2.5zm10-10c-1.4062 0-2.5 1.1718-2.5 2.5 0 1.4062 1.0938 2.5 2.5 2.5 1.3281 0 2.5-1.0938 2.5-2.5 0-1.3282-1.1719-2.5-2.5-2.5zm-2.5 10c0 1.4062 1.0938 2.5 2.5 2.5 1.3281 0 2.5-1.0938 2.5-2.5 0-1.3282-1.1719-2.5-2.5-2.5-1.4062 0-2.5 1.1718-2.5 2.5zm2.5 5c-1.4062 0-2.5 1.1718-2.5 2.5 0 1.4062 1.0938 2.5 2.5 2.5 1.3281 0 2.5-1.0938 2.5-2.5 0-1.3282-1.1719-2.5-2.5-2.5z" fill="url(#a)"/></svg>