<svg fill="none" height="41" viewBox="0 0 40 41" width="40" xmlns="http://www.w3.org/2000/svg" xmlns:xlink="http://www.w3.org/1999/xlink"><linearGradient id="a" gradientUnits="userSpaceOnUse" x1="132.5" x2="132.5" y1="-9.93433" y2="50.0657"><stop offset="0" stop-color="#d0cefd"/><stop offset="1" stop-color="#ffd99c"/></linearGradient><path d="m10.9375 1.78442c1.0937-1.093746 2.5-1.640621 3.9844-1.640621h10.0781c1.4844 0 2.8906.546875 3.9844 1.640621l9.2968 9.29688c1.0938 1.0937 1.6407 2.5 1.6407 3.9844v10.0781c0 1.4844-.5469 2.8906-1.6407 3.9844l-9.2968 9.2968c-1.0938 1.0938-2.5 1.6407-3.9844 1.6407h-10.0781c-1.4844 0-2.8907-.5469-3.9844-1.6407l-9.29688-9.2968c-1.093745-1.0938-1.64062-2.5-1.64062-3.9844v-10.0781c0-1.4844.546875-2.8907 1.64062-3.9844zm7.1875 25.15628c0 1.0937.7812 1.875 1.875 1.875 1.0156 0 1.875-.7813 1.875-1.875v-5h5c1.0156 0 1.875-.7813 1.875-1.875 0-1.0157-.8594-1.875-1.875-1.875h-5v-5c0-1.0157-.8594-1.875-1.875-1.875-1.0938 0-1.875.8593-1.875 1.875v5h-5c-1.0938 0-1.875.8593-1.875 1.875 0 1.0937.7812 1.875 1.875 1.875h5z" fill="url(#a)"/></svg>