<svg xmlns="http://www.w3.org/2000/svg" xmlns:xlink="http://www.w3.org/1999/xlink" xmlns:svgjs="http://svgjs.com/svgjs" id="SvgjsSvg1001" width="257.2589683389664" height="63.92396926879883" version="1.1" viewBox="108.87051582336426 112.53549575805664 257.2589683389664 63.92396926879883" role="img" aria-labelledby="ajrejr8yi1wspd6l4qe6bamxlazj81dc" class="fill-current text-gray-600 hover:text-gray-800 h-10 w-auto"><title id="ajrejr8yi1wspd6l4qe6bamxlazj81dc">Logo</title><defs id="SvgjsDefs1002"></defs><rect id="SvgjsRect1008" width="257.2589683389664" height="63.92396926879883" fill="transparent" x="108.87051582336426" y="112.53549575805664"></rect><g id="SvgjsG1013" transform="matrix(1,0,0,1,199.37048149108887,129.14649963378906)"><path id="SvgjsPath1014" d="M0.9249999856948854 21.45999922180176Q4.550999985694885 22.56999922180176 8.361999985694885 22.56999922180176Q10.285999985694886 22.56999922180176 11.654999985694886 22.347999221801757L11.654999985694886 19.16599922180176L8.287999985694885 18.869999221801756Q5.290999985694885 18.610999221801755 3.5704999856948856 17.852499221801757Q1.8499999856948852 17.09399922180176 1.091499985694885 15.669499221801757Q0.3329999856948853 14.244999221801757 0.3329999856948853 11.839999221801758Q0.3329999856948853 8.842999221801758 1.1654999856948853 7.103999221801757Q1.9979999856948853 5.364999221801757 3.8849999856948854 4.587999221801759Q5.771999985694885 3.810999221801758 9.027999985694885 3.810999221801758Q13.319999985694885 3.810999221801758 17.426999985694884 4.809999221801757L16.612999985694884 10.02699922180176Q14.725999985694886 9.656999221801758 13.338499985694884 9.490499221801759Q11.950999985694885 9.323999221801756 10.433999985694886 9.323999221801756Q8.546999985694885 9.323999221801756 7.325999985694885 9.508999221801758L7.325999985694885 12.690999221801757L10.359999985694886 12.949999221801757Q14.799999985694885 13.356999221801757 16.723999985694885 15.077499221801757Q18.647999985694884 16.79799922180176 18.647999985694884 20.38699922180176Q18.647999985694884 24.419999221801756 16.409499985694886 26.23299922180176Q14.170999985694886 28.045999221801758 9.138999985694886 28.045999221801758Q4.2179999856948855 28.045999221801758 -1.4305114648394124e-8 26.824999221801757L0.9249999856948854 21.45999922180176ZM30.968999985694886 23.198999221801756Q34.11399998569488 23.198999221801756 37.517999985694885 22.23699922180176L38.331999985694885 26.78799922180176Q34.66899998569489 28.00899922180176 30.265999985694886 28.00899922180176Q25.381999985694886 28.00899922180176 23.235999985694885 25.733499221801758Q21.089999985694885 23.457999221801757 21.089999985694885 18.240999221801758Q21.089999985694885 13.060999221801758 23.291499985694884 10.766999221801758Q25.492999985694887 8.472999221801757 30.413999985694886 8.472999221801757Q33.706999985694885 8.472999221801757 35.501499985694885 9.027999221801757Q37.295999985694884 9.582999221801757 38.05449998569488 10.877999221801758Q38.81299998569489 12.172999221801758 38.81299998569489 14.577999221801758Q38.81299998569489 16.945999221801756 37.850999985694884 18.240999221801758Q36.88899998569489 19.53599922180176 34.59499998569488 20.09099922180176Q32.30099998569489 20.64599922180176 28.082999985694887 20.64599922180176L28.082999985694887 22.97699922180176Q29.118999985694884 23.198999221801756 30.968999985694886 23.198999221801756ZM30.746999985694885 13.282999221801758Q29.229999985694885 13.282999221801758 28.656499985694886 13.615999221801758Q28.082999985694887 13.948999221801758 28.082999985694887 14.873999221801757L28.082999985694887 17.241999221801755L30.265999985694886 17.241999221801755Q31.782999985694886 17.241999221801755 32.35649998569489 16.890499221801758Q32.929999985694884 16.53899922180176 32.929999985694884 15.576999221801758L32.929999985694884 13.282999221801758L30.746999985694885 13.282999221801758ZM51.133999985694885 8.472999221801757Q55.38899998569489 8.472999221801757 57.31299998569489 9.934499221801758Q59.23699998569489 11.395999221801759 59.23699998569489 14.651999221801757L59.23699998569489 27.490999221801758L56.017999985694885 27.490999221801758L54.389999985694885 25.640999221801756Q51.57799998569489 28.00899922180176 48.02599998569489 28.00899922180176Q44.73299998569489 28.00899922180176 43.23449998569488 26.547499221801758Q41.73599998569488 25.085999221801757 41.73599998569488 21.903999221801758Q41.73599998569488 19.53599922180176 42.64249998569488 18.240999221801758Q43.548999985694884 16.945999221801756 45.694999985694885 16.390999221801756Q47.840999985694886 15.835999221801758 51.76299998569488 15.835999221801758L52.724999985694886 15.835999221801758L52.724999985694886 13.504999221801757Q51.947999985694885 13.282999221801758 50.43099998569488 13.282999221801758Q47.100999985694884 13.282999221801758 43.36399998569488 14.244999221801757L42.58699998569489 9.693999221801757Q46.43499998569489 8.472999221801757 51.133999985694885 8.472999221801757ZM50.097999985694884 23.531999221801758Q51.61499998569489 23.531999221801758 52.169999985694886 23.198999221801756Q52.724999985694886 22.865999221801758 52.724999985694886 21.940999221801757L52.724999985694886 19.23999922180176L50.39399998569488 19.23999922180176Q48.87699998569489 19.23999922180176 48.303499985694884 19.591499221801758Q47.72999998569489 19.942999221801756 47.72999998569489 20.90499922180176L47.72999998569489 23.531999221801758L50.097999985694884 23.531999221801758ZM66.71099998569488 8.990999221801758L68.56099998569489 11.543999221801759Q71.03999998569489 9.138999221801757 73.96299998569488 8.435999221801758L74.36999998569489 14.762999221801758Q73.40799998569489 14.910999221801758 72.03899998569489 15.447499221801758Q70.66999998569489 15.983999221801758 70.00399998569489 16.464999221801758L70.00399998569489 27.490999221801758L63.49199998569489 27.490999221801758L63.49199998569489 8.990999221801758L66.71099998569488 8.990999221801758ZM83.98999998569488 28.00899922180176Q81.14099998569489 28.00899922180176 79.38349998569488 27.02849922180176Q77.62599998569489 26.047999221801756 76.81199998569488 23.90199922180176Q75.99799998569489 21.75599922180176 75.99799998569489 18.240999221801758Q75.99799998569489 14.725999221801757 76.81199998569488 12.579999221801758Q77.62599998569489 10.43399922180176 79.36499998569488 9.453499221801756Q81.10399998569488 8.472999221801757 83.98999998569488 8.472999221801757Q85.61799998569488 8.472999221801757 87.46799998569489 8.694999221801758Q89.31799998569488 8.916999221801756 90.24299998569488 9.21299922180176L89.68799998569489 13.800999221801758Q87.87499998569488 13.282999221801758 85.65499998569489 13.282999221801758Q84.17499998569488 13.282999221801758 83.56449998569488 13.930499221801758Q82.95399998569488 14.577999221801758 82.95399998569488 16.094999221801757L82.95399998569488 22.97699922180176Q83.84199998569488 23.198999221801756 85.32199998569489 23.198999221801756Q87.68999998569488 23.198999221801756 90.05799998569489 22.23699922180176L90.64999998569489 26.78799922180176Q87.65299998569489 28.00899922180176 83.98999998569488 28.00899922180176ZM93.49899998569488 27.490999221801758L93.49899998569488 3.366999221801759L99.86299998569488 2.8859992218017574L99.86299998569488 9.804999221801758Q102.26799998569489 8.472999221801757 105.63499998569489 8.472999221801757Q108.22499998569488 8.472999221801757 109.66799998569489 9.527499221801758Q111.11099998569489 10.581999221801759 111.11099998569489 12.468999221801758L111.11099998569489 27.490999221801758L104.59899998569489 27.490999221801758L104.59899998569489 13.837999221801757L102.71199998569489 13.837999221801757Q101.15799998569489 13.837999221801757 100.58449998569489 14.207999221801758Q100.01099998569488 14.577999221801758 100.01099998569488 15.539999221801757L100.01099998569488 27.490999221801758L93.49899998569488 27.490999221801758ZM129.24099998569488 27.490999221801758L128.16799998569488 23.457999221801757L120.95299998569489 23.457999221801757L119.87999998569488 27.490999221801758L113.36799998569488 27.490999221801758L119.50999998569489 4.365999221801758L129.6109999856949 4.365999221801758L135.75299998569488 27.490999221801758L129.24099998569488 27.490999221801758ZM122.24799998569489 18.68499922180176L126.87299998569489 18.68499922180176L124.72699998569489 10.581999221801759L124.39399998569489 10.581999221801759L122.24799998569489 18.68499922180176ZM148.77699998569489 8.472999221801757Q151.5519999856949 8.472999221801757 153.21699998569488 9.453499221801756Q154.88199998569488 10.43399922180176 155.6589999856949 12.561499221801757Q156.43599998569488 14.688999221801758 156.43599998569488 18.240999221801758Q156.43599998569488 21.792999221801757 155.6589999856949 23.938999221801758Q154.88199998569488 26.08499922180176 153.21699998569488 27.06549922180176Q151.5519999856949 28.045999221801758 148.77699998569489 28.045999221801758Q146.29799998569487 28.045999221801758 144.7439999856949 27.342999221801758L144.7439999856949 33.18899922180176L138.2319999856949 33.70699922180176L138.2319999856949 8.990999221801758L141.4509999856949 8.990999221801758L142.6719999856949 10.766999221801758Q143.59699998569488 9.582999221801757 145.11399998569487 9.027999221801757Q146.6309999856949 8.472999221801757 148.77699998569489 8.472999221801757ZM149.44299998569488 22.088999221801757L149.44299998569488 13.430999221801757L146.2609999856949 13.430999221801757Q145.3729999856949 13.430999221801757 145.05849998569488 13.634499221801757Q144.7439999856949 13.837999221801757 144.7439999856949 14.392999221801757L144.7439999856949 23.08799922180176L147.9629999856949 23.08799922180176Q148.8139999856949 23.08799922180176 149.12849998569487 22.884499221801757Q149.44299998569488 22.68099922180176 149.44299998569488 22.088999221801757ZM160.02499998569488 9.767999221801759L166.53699998569488 8.916999221801756L166.53699998569488 27.490999221801758L160.02499998569488 27.490999221801758L160.02499998569488 9.767999221801759ZM163.2439999856949 7.029999221801759Q161.8379999856949 7.029999221801759 161.09799998569488 6.733999221801756Q160.35799998569487 6.437999221801757 160.0434999856949 5.6979992218017586Q159.72899998569488 4.957999221801757 159.72899998569488 3.5519992218017578Q159.72899998569488 1.5169992218017576 160.4689999856949 0.7584992218017561Q161.20899998569487 -7.781982418464395e-7 163.2439999856949 -7.781982418464395e-7Q165.2789999856949 -7.781982418464395e-7 166.01899998569488 0.7584992218017561Q166.75899998569489 1.5169992218017576 166.75899998569489 3.5519992218017578Q166.75899998569489 5.586999221801758 166.01899998569488 6.308499221801757Q165.2789999856949 7.029999221801759 163.2439999856949 7.029999221801759Z " fill="currentColor"></path></g><g id="SvgjsG1015" transform="matrix(1,0,0,1,69.37048149108887,62)"><path id="color_1" d="M97.24234,109.8245a2.57759,2.57759,0,0,1-2.57778,2.57778,9.80672,9.80672,0,0,1-9.79558-9.79557V91.58366a2.57779,2.57779,0,0,1,5.15557,0v11.02305a4.64509,4.64509,0,0,0,4.64,4.64A2.57759,2.57759,0,0,1,97.24234,109.8245ZM112.19348,93.223a2.57759,2.57759,0,0,0-2.57778,2.57779,4.64,4.64,0,1,1-9.28,0V73.73554a23.2,23.2,0,1,0-46.40009,0V95.80076a4.64,4.64,0,1,1-9.28,0,2.57779,2.57779,0,1,0-5.15557,0,9.79558,9.79558,0,0,0,19.59115,0V73.73554a18.04449,18.04449,0,0,1,36.089,0V95.80076a9.79558,9.79558,0,0,0,19.59115,0A2.57759,2.57759,0,0,0,112.19348,93.223ZM77.13563,91.78a2.57759,2.57759,0,0,0-2.57778,2.57778v17.52893a2.57779,2.57779,0,0,0,5.15557,0V94.3578A2.57759,2.57759,0,0,0,77.13563,91.78ZM66.8245,89.00588a2.57759,2.57759,0,0,0-2.57778,2.57778v11.02305a4.64509,4.64509,0,0,1-4.64,4.64,2.57778,2.57778,0,1,0,0,5.15556,9.80671,9.80671,0,0,0,9.79557-9.79557V91.58366A2.57759,2.57759,0,0,0,66.8245,89.00588ZM69.918,70.12639a3.6089,3.6089,0,1,0,3.6089,3.6089A3.60891,3.60891,0,0,0,69.918,70.12639Zm18.04448,3.6089a3.6089,3.6089,0,1,0-3.60889,3.60889A3.60891,3.60891,0,0,0,87.96251,73.73529Z" fill="currentColor"></path></g></svg>
